<svg width="130" height="113" viewBox="0 0 130 113" fill="none" xmlns="http://www.w3.org/2000/svg">
<circle cx="16.5" cy="84.5" r="16.5" fill="#D2147D" fill-opacity="0.4"/>
<circle cx="99.5" cy="27.5" r="27.5" fill="#D2147D" fill-opacity="0.1"/>
<circle cx="67.5" cy="22.5" r="18.5" fill="#D2147D" fill-opacity="0.1"/>
<circle cx="115" cy="55" r="15" fill="#D2147D" fill-opacity="0.1"/>
<g clip-path="url(#clip0_1_236)">
<path d="M13.748 53.0462C13.7505 52.0798 13.758 51.116 13.7605 50.1496C13.798 42.1989 13.8679 34.2407 13.8679 26.2901C17.3363 30.3728 24.3206 33.162 32.3737 33.162C42.0074 33.162 50.1104 29.1717 52.4951 23.748C54.8798 29.1717 62.9828 33.162 72.6165 33.162C80.6696 33.162 87.6539 30.3728 91.1223 26.2901C91.1223 37.4695 91.2546 48.6638 91.2546 59.8332C91.2546 81.6302 75.633 100.633 52.4951 110.646C45.8604 107.775 39.8424 104.164 34.636 99.9587M29.3922 66.5254L42.3195 54.5994L46.7918 45.5575C47.7632 43.5948 51.5987 44.2665 52.3777 46.3116C53.1493 48.3417 52.2853 53.7254 51.2191 55.6531L47.1239 63.0395L62.1638 62.1106C64.3537 61.9757 66.4387 63.5938 66.4387 65.7862C66.4387 67.709 65.2926 69.4195 63.5372 69.9239C63.2899 69.9938 62.1912 70.0862 61.9215 70.0612L61.542 70.0288L62.9828 70.9427C63.6745 71.3797 64.1489 72.1338 64.2014 72.833C64.3312 74.546 63.3424 76.0967 61.8566 76.7684C61.6144 76.8782 60.3384 76.8433 60.0737 76.9032C60.2835 77.0331 61.502 77.3002 61.6843 77.465C62.4185 78.1268 62.9104 79.0607 62.9903 80.1194C63.1201 81.8349 62.1288 83.3881 60.6405 84.0573C60.4008 84.1647 58.5855 84.1897 58.3208 84.2496C58.6504 84.4543 60.5107 84.764 60.7704 85.0512C61.3372 85.6829 61.7093 86.4995 61.7767 87.4059C61.9415 89.5933 60.291 91.6334 58.101 91.6809L41.9749 92.033C36.1018 92.1603 30.9728 88.8916 27.9913 84.4194M20.8247 84.7041H20.9746M84.6049 38.9527C84.6049 48.1719 84.7148 50.9112 84.7148 60.1229C84.7148 69.3346 81.149 78.399 74.9912 85.8352M17.0741 61.5537H24.4505C26.141 61.5537 27.5244 62.9371 27.5244 64.6276V88.9591C27.5244 90.6496 26.141 92.033 24.4505 92.033H17.0741C15.3836 92.033 14.0003 90.6496 14.0003 88.9591V64.6276C14.0003 62.9371 15.3836 61.5537 17.0741 61.5537Z" stroke="#131727" stroke-width="3.4959" stroke-linecap="round" stroke-linejoin="round"/>
</g>
<defs>
<clipPath id="clip0_1_236">
<rect width="81" height="90.394" fill="white" transform="translate(12 22)"/>
</clipPath>
</defs>
</svg>
