<svg width="116" height="127" viewBox="0 0 116 127" fill="none" xmlns="http://www.w3.org/2000/svg">
<circle cx="100" cy="14" r="14" fill="#D2147D" fill-opacity="0.4"/>
<circle cx="42" cy="85" r="42" fill="#D2147D" fill-opacity="0.1"/>
<g clip-path="url(#clip0_1_232)">
<path d="M84.2749 57.74C85.962 62.7856 86.3497 68.1692 85.4223 73.4112C82.352 90.7905 65.7717 102.393 48.3898 99.3204C31.0079 96.2474 19.4078 79.6672 22.4807 62.2853C25.551 44.906 42.1313 33.3032 59.5132 36.3761C65.8006 37.4869 71.5718 40.4184 76.159 44.8614" stroke="#131727" stroke-width="3.97413" stroke-linecap="round" stroke-linejoin="round"/>
<path d="M67.6611 88.4402C67.2131 87.7617 66.7939 87.057 66.4141 86.3313C65.6491 84.88 65.0178 83.3422 64.5436 81.7337C64.0668 80.1252 63.7446 78.4433 63.5952 76.7064C62.4006 62.8088 72.6988 50.5773 86.5965 49.3853C100.494 48.1907 112.726 58.4888 113.92 72.3839C115.115 86.2816 104.817 98.5131 90.919 99.7077C89.1821 99.857 87.4688 99.8256 85.8027 99.6317C84.1365 99.4378 82.5123 99.0789 80.9536 98.5707C80.1729 98.3166 79.4105 98.0258 78.6613 97.701" stroke="#131727" stroke-width="3.97413" stroke-linecap="round" stroke-linejoin="round"/>
<path d="M80.5185 7.98535C83.6334 7.98535 87.2276 10.8409 88.734 13.7671C90.1827 10.8409 93.7377 7.98535 96.8525 7.98535C105.047 7.98535 109.388 19.224 101.919 26.5671L88.9959 39.2728L75.803 26.5671C68.0957 19.6274 72.324 7.98535 80.5185 7.98535Z" stroke="#131727" stroke-width="3.97413" stroke-linecap="round" stroke-linejoin="round"/>
</g>
<defs>
<clipPath id="clip0_1_232">
<rect width="96" height="95.7983" fill="white" transform="translate(20 6)"/>
</clipPath>
</defs>
</svg>
