<svg width="108" height="125" viewBox="0 0 108 125" fill="none" xmlns="http://www.w3.org/2000/svg">
<circle cx="54.2741" cy="80.0002" r="44.3425" fill="#D2147D" fill-opacity="0.1"/>
<circle cx="53.7402" cy="28.1782" r="7.47945" fill="#D2147D" fill-opacity="0.4"/>
<g clip-path="url(#clip0_1_261)">
<path d="M71.4686 79.3072H83.8303C85.616 79.3072 87.0825 79.8372 88.254 80.6894C90.6028 82.3969 102.206 94.0298 104.886 97.4477C106.123 101.049 102.082 103.895 98.1613 103.895H9.83805C5.90822 103.895 1.88504 101.055 3.11367 97.4477C5.79378 94.0298 17.3936 82.3999 19.7454 80.6924C20.9138 79.8402 22.3804 79.3102 24.1691 79.3102H36.6783M53.9997 2.10791C44.9566 2.10791 36.7687 5.77274 30.8423 11.6991C24.9159 17.6255 21.2511 25.8134 21.2511 34.8565C21.2511 40.1204 22.5008 45.1011 24.6991 49.4977C28.909 57.9175 48.257 76.8078 54.0027 92.7409C60.1037 77.2776 79.0964 57.9175 83.3063 49.4977C85.5046 45.1011 86.7543 40.1204 86.7543 34.8565C86.7543 16.7702 72.092 2.10791 54.0027 2.10791H53.9997ZM70.3574 45.6432C71.2126 44.2188 71.8782 42.7523 72.3509 41.2346L77.4612 40.9545C77.8196 39.4097 78.0304 37.8076 78.0786 36.1604C78.1207 34.6457 78.0213 33.1611 77.7955 31.7156L72.7213 31.0652C72.36 29.5173 71.7999 28.0056 71.047 26.5692L74.4619 22.7629C72.8177 20.1219 70.6766 17.8212 68.1651 15.9933L64.1209 19.1221C62.7387 18.2669 61.2721 17.5984 59.7544 17.1256L59.4743 12.0183C57.9295 11.66 56.3275 11.4492 54.6803 11.401C53.1655 11.3588 51.6809 11.4582 50.2355 11.684L49.585 16.7552C48.0372 17.1165 46.5255 17.6767 45.0861 18.4295L41.2797 15.0176C38.6387 16.6618 36.338 18.8029 34.5101 21.3144L37.6359 25.3586C36.7807 26.7409 36.1122 28.2074 35.6394 29.7251L30.5321 30.0052C30.1738 31.55 29.963 33.1521 29.9148 34.7993C29.8726 36.314 29.972 37.7986 30.1979 39.244L35.272 39.8945C35.6334 41.4423 36.1935 42.954 36.9463 44.3935L33.5345 48.1998C35.1787 50.8408 37.3197 53.1415 39.8312 54.9694L43.8755 51.8436C45.2577 52.6988 46.7242 53.3643 48.242 53.8401L48.522 58.9896C50.0668 59.3901 51.6689 59.6009 53.3161 59.649C54.8308 59.6912 56.3154 59.5918 57.7609 59.366L58.4113 54.2948C59.9592 53.9335 61.4709 53.3734 62.9103 52.6205L66.7167 56.0324C69.3546 54.3882 71.6583 52.2471 73.4862 49.7356L70.3574 45.6492V45.6432ZM54.2858 25.3135C59.902 25.4731 64.3226 30.1527 64.163 35.7689C64.0034 41.3851 59.3238 45.8058 53.7076 45.6462C48.0944 45.4866 43.6707 40.8069 43.8303 35.1907C43.9899 29.5746 48.6696 25.1539 54.2858 25.3135Z" stroke="#131727" stroke-width="4.21591" stroke-linecap="round" stroke-linejoin="round"/>
</g>
<defs>
<clipPath id="clip0_1_261">
<rect width="106.44" height="106" fill="white" transform="translate(0.780273)"/>
</clipPath>
</defs>
</svg>
