<svg width="105" height="112" viewBox="0 0 105 112" fill="none" xmlns="http://www.w3.org/2000/svg">
<circle cx="82.5" cy="49.5" r="15.5" fill="#D2147D" fill-opacity="0.4"/>
<circle cx="28.5" cy="83.5" r="28.5" fill="#D2147D" fill-opacity="0.1"/>
<circle cx="45" cy="29" r="12" fill="#D2147D" fill-opacity="0.4"/>
<g clip-path="url(#clip0_1_227)">
<path d="M95.1547 41.4326H99.2768C101.076 41.4326 103.337 43.1911 103.337 44.9899V78.4486C103.337 79.984 101.282 81.3367 99.7467 81.3367H65.8182C64.774 81.3367 63.6586 80.1169 63.6562 79.0727V74.514L63.6491 67.2214C63.0369 66.443 61.7198 65.5792 60.7041 65.5578C57.9251 65.4961 57.4837 68.6951 53.1077 68.6951C49.1303 68.6951 45.9053 65.47 45.9053 61.4926C45.9053 57.5153 48.7198 54.2902 53.1077 54.2902C57.4956 54.2902 58.0153 57.7858 60.7041 57.8546C62.1042 57.8902 63.286 57.0478 63.6491 55.8707L63.6539 48.9839L63.6586 44.8333C63.6586 42.9633 65.1893 41.4326 67.0593 41.4326H78.2557C79.2951 41.753 80.0355 42.7948 80.0047 44.0288C79.9454 46.3996 76.8627 46.8576 76.8627 50.7258C76.8627 54.594 79.7057 57.0762 83.2131 57.0762C86.7206 57.0762 89.5636 54.2332 89.5636 50.7258C89.5636 46.8694 86.7443 46.4779 86.7989 44.0288C86.8179 43.1341 87.5797 41.9713 88.2655 41.4326H95.1571H95.1547Z" stroke="#131727" stroke-width="3.32237" stroke-linecap="round" stroke-linejoin="round"/>
<path d="M63.4326 34.5123V26.7427C63.753 25.7032 64.7948 24.9628 66.0288 24.9937C68.3996 25.053 68.8576 28.1357 72.7258 28.1357C76.594 28.1357 79.0762 25.2927 79.0762 21.7852C79.0762 18.2777 76.2332 15.4347 72.7258 15.4347C68.8694 15.4347 68.4779 18.254 66.0288 18.1994C65.1341 18.1804 63.9713 17.4187 63.4326 16.7328V5.72155C63.4326 3.92272 65.1911 1.66113 66.9899 1.66113H100.449C101.984 1.66113 103.337 3.71626 103.337 5.25167V35.6205" stroke="#131727" stroke-width="3.32237" stroke-linecap="round" stroke-linejoin="round"/>
<path d="M56.5123 41.5676H48.7427C47.7032 41.2472 46.9628 40.2054 46.9937 38.9714C47.053 36.6006 50.1357 36.1426 50.1357 32.2744C50.1357 28.4062 47.2927 25.9239 43.7852 25.9239C40.2777 25.9239 37.4347 28.767 37.4347 32.2744C37.4347 36.1308 40.254 36.5223 40.1994 38.9714C40.1804 39.8661 39.4187 41.0289 38.7328 41.5676H27.7215C25.9227 41.5676 23.6611 39.8091 23.6611 38.0103V4.54922C23.6611 3.01381 25.7163 1.66113 27.2517 1.66113H57.6205" stroke="#131727" stroke-width="3.32237" stroke-linecap="round" stroke-linejoin="round"/>
<path d="M58.1569 81.3393H26.5492C25.0138 81.3393 23.6611 79.2842 23.6611 77.7487V47.3799" stroke="#131727" stroke-width="3.32237" stroke-linecap="round" stroke-linejoin="round"/>
</g>
<defs>
<clipPath id="clip0_1_227">
<rect width="83" height="83" fill="white" transform="translate(22)"/>
</clipPath>
</defs>
</svg>
