<svg width="113" height="87" viewBox="0 0 113 87" fill="none" xmlns="http://www.w3.org/2000/svg">
<circle cx="98.5" cy="68.5" r="10.5" fill="#D2147D" fill-opacity="0.4"/>
<circle cx="36" cy="36" r="36" fill="#D2147D" fill-opacity="0.1"/>
<g clip-path="url(#clip0_1_242)">
<path d="M27.7236 27.4326V78.2482C27.7236 82.0916 29.7315 83.8272 33.3027 83.8272H63.79" stroke="#131727" stroke-width="3.49626" stroke-linecap="round" stroke-linejoin="round"/>
<path d="M89.5777 17.174V7.32707C89.5777 3.44373 88.1543 1.74805 83.9987 1.74805H53.8984" stroke="#131727" stroke-width="3.49626" stroke-linecap="round" stroke-linejoin="round"/>
<path d="M27.7236 21.8315H42.2281C46.1114 21.8315 47.8071 19.8611 47.8071 16.2525V1.74805L27.7236 21.8315Z" stroke="#131727" stroke-width="3.49626" stroke-linecap="round" stroke-linejoin="round"/>
<path d="M78.971 18.2588H59.5068" stroke="#131727" stroke-width="3.49626" stroke-linecap="round" stroke-linejoin="round"/>
<path d="M68.3686 33.625H40.0439" stroke="#131727" stroke-width="3.49626" stroke-linecap="round" stroke-linejoin="round"/>
<path d="M60.6744 41.8447H40.0439" stroke="#131727" stroke-width="3.49626" stroke-linecap="round" stroke-linejoin="round"/>
<path d="M50.4728 50.0664H40.0439" stroke="#131727" stroke-width="3.49626" stroke-linecap="round" stroke-linejoin="round"/>
<path d="M102.641 84.5777H106.979C108.872 84.5777 111.252 82.7272 111.252 80.8342V65.8153C110.685 65.0936 109.461 64.2919 108.52 64.2719C105.942 64.2145 105.53 67.1813 101.472 67.1813C97.7811 67.1813 94.7893 64.1895 94.7893 60.4985C94.7893 56.8074 97.4015 53.8156 101.472 53.8156C105.543 53.8156 106.025 57.0572 108.52 57.1221C109.818 57.1546 110.915 56.3754 111.252 55.2816V45.6219C111.252 44.0061 109.089 42.5827 107.473 42.5827H96.3976C95.5785 41.9383 94.6694 40.5523 94.647 39.4835C94.582 36.5591 97.9484 36.0946 97.9484 31.4895C97.9484 27.304 94.5546 23.9102 90.369 23.9102C86.1835 23.9102 82.7897 26.872 82.7897 31.4895C82.7897 36.1071 86.4682 36.654 86.5406 39.4835C86.5781 40.9569 85.6916 42.2006 84.4529 42.5827H71.7715C70.6726 42.5827 69.4989 43.8663 69.4964 44.9651V49.7625L69.4889 57.4368C68.8446 58.2559 67.4586 59.1649 66.3897 59.1874C63.4654 59.2523 63.0009 55.8859 58.3958 55.8859C54.2103 55.8859 50.8164 59.2798 50.8164 63.4653C50.8164 67.6508 53.7782 71.0447 58.3958 71.0447C63.0133 71.0447 63.5603 67.3661 66.3897 67.2937C67.8631 67.2562 69.1068 68.1428 69.4889 69.3815L69.4939 76.6287L69.4989 80.9965C69.4989 82.9644 71.1097 84.5752 73.0776 84.5752H82.8596C83.9534 84.2381 84.7326 83.1417 84.7001 81.8431C84.6377 79.3483 81.3937 78.8663 81.3937 74.7957C81.3937 70.725 84.3855 68.1153 88.0765 68.1153C91.7675 68.1153 94.7593 71.1071 94.7593 74.7957C94.7593 78.8538 91.7925 79.2659 91.85 81.8431C91.8699 82.7846 92.6716 84.0083 93.3933 84.5752H102.643L102.641 84.5777Z" stroke="#131727" stroke-width="3.49626" stroke-linecap="round" stroke-linejoin="round"/>
</g>
<defs>
<clipPath id="clip0_1_242">
<rect width="87.0243" height="86.3251" fill="white" transform="translate(25.9756)"/>
</clipPath>
</defs>
</svg>
