<svg width="119" height="99" viewBox="0 0 119 99" fill="none" xmlns="http://www.w3.org/2000/svg">
<circle cx="50" cy="46" r="32" fill="#D2147D" fill-opacity="0.1"/>
<circle cx="95.5" cy="29.5" r="20.5" fill="#D2147D" fill-opacity="0.4"/>
<circle cx="25.5" cy="29.5" r="7.5" fill="#D2147D" fill-opacity="0.4"/>
<g clip-path="url(#clip0_1_251)">
<path d="M57.5094 2.00879C77.314 2.00879 93.3665 18.0613 93.3665 37.8659C93.3665 57.6705 77.314 73.723 57.5094 73.723C37.7048 73.723 21.6523 57.6705 21.6523 37.8659C21.6523 18.0613 37.7077 2.00879 57.5094 2.00879Z" stroke="#131727" stroke-width="4.01599" stroke-linecap="round" stroke-linejoin="round"/>
<path d="M57.7695 9.67871C73.1479 9.67871 85.6118 22.1455 85.6118 37.521" stroke="#131727" stroke-width="4.01599" stroke-linecap="round" stroke-linejoin="round"/>
<path d="M94.3618 63.2031L116.849 85.6898L105.549 96.992L82.4229 73.8685" stroke="#131727" stroke-width="4.01599" stroke-linecap="round" stroke-linejoin="round"/>
<path d="M57.5697 19.2168C62.3774 19.2168 66.2758 23.3303 66.2758 28.402C66.2758 31.8299 64.4973 34.8161 61.8582 36.3966C60.5645 37.1998 59.0585 37.6617 57.4463 37.6617C52.6386 37.6617 48.7402 33.5482 48.7402 28.4765C48.7402 25.0486 50.5187 22.0624 53.155 20.4847C54.4487 19.6815 55.9575 19.2197 57.5668 19.2197L57.5697 19.2168Z" stroke="#131727" stroke-width="4.01599" stroke-linecap="round" stroke-linejoin="round"/>
<path d="M76.918 58.576L76.178 49.0294C75.8768 41.7604 40.384 42.3026 39.2365 48.9576C38.4104 52.5749 38.2096 51.9496 38.1006 58.5788" stroke="#131727" stroke-width="4.01599" stroke-linecap="round" stroke-linejoin="round"/>
<path d="M46.1387 56.6279L46.0498 64.5997" stroke="#131727" stroke-width="4.01599" stroke-linecap="round" stroke-linejoin="round"/>
<path d="M68.9717 64.5997L68.8799 56.6279" stroke="#131727" stroke-width="4.01599" stroke-linecap="round" stroke-linejoin="round"/>
<path d="M14.2052 34.0154C13.2241 32.5295 12.6504 30.7223 12.6504 28.7745C12.6504 25.3466 14.4289 22.3604 17.0651 20.7827C17.263 20.6594 17.4638 20.5446 17.6733 20.4385" stroke="#131727" stroke-width="4.01599" stroke-linecap="round" stroke-linejoin="round"/>
<path d="M14.5406 44.5195C8.44775 45.2481 3.55684 46.8517 3.14377 49.2555C2.31762 52.8728 2.11682 57.4109 2.00781 64.0401" stroke="#131727" stroke-width="4.01599" stroke-linecap="round" stroke-linejoin="round"/>
<path d="M10.045 56.9268L9.95605 64.9014" stroke="#131727" stroke-width="4.01599" stroke-linecap="round" stroke-linejoin="round"/>
<path d="M100.976 37.1994C104.054 35.7824 106.206 32.5466 106.206 28.7744C106.206 25.3465 104.427 22.3603 101.791 20.7826C100.497 19.9794 98.9885 19.5176 97.3792 19.5176C97.23 19.5176 97.0837 19.5204 96.9346 19.5291" stroke="#131727" stroke-width="4.01599" stroke-linecap="round" stroke-linejoin="round"/>
<path d="M100.526 44.1875C108.266 44.6379 115.216 46.3734 115.715 49.2563C116.542 52.8735 116.742 57.4116 116.851 64.0409" stroke="#131727" stroke-width="4.01599" stroke-linecap="round" stroke-linejoin="round"/>
<path d="M108.811 56.9268L108.902 64.9014" stroke="#131727" stroke-width="4.01599" stroke-linecap="round" stroke-linejoin="round"/>
</g>
<defs>
<clipPath id="clip0_1_251">
<rect width="118.856" height="99" fill="white"/>
</clipPath>
</defs>
</svg>
