<svg width="124" height="123" viewBox="0 0 124 123" fill="none" xmlns="http://www.w3.org/2000/svg">
<circle cx="77.9166" cy="76.6041" r="45.4683" fill="#D2147D" fill-opacity="0.1"/>
<circle cx="38.8783" cy="52.2626" r="12.8597" fill="#D2147D" fill-opacity="0.4"/>
<g clip-path="url(#clip0_1_265)">
<path d="M10.5508 86.6768H71.5335V81.7881" stroke="#131727" stroke-width="3.60982" stroke-linecap="round" stroke-linejoin="round"/>
<path d="M71.5342 44.4909V15.896" stroke="#131727" stroke-width="3.60982" stroke-linecap="round" stroke-linejoin="round"/>
<path d="M65.0574 8.34103C65.0574 4.74669 67.971 1.80469 71.5344 1.80469H8.2827C4.73219 1.80469 1.80566 4.74669 1.80566 8.34103C1.80566 11.9354 4.7193 14.8774 8.2827 14.8774H71.5344" stroke="#131727" stroke-width="3.60982" stroke-linecap="round" stroke-linejoin="round"/>
<path d="M1.80566 6.7915V78.8099C1.80566 83.1391 4.7193 86.6793 8.2827 86.6793H10.5002" stroke="#131727" stroke-width="3.60982" stroke-linecap="round" stroke-linejoin="round"/>
<path d="M68.1764 76.3168L62.6611 48.8384L86.9629 62.798L75.0995 66.1242L68.1764 76.3168Z" stroke="#131727" stroke-width="3.60982" stroke-linecap="round" stroke-linejoin="round"/>
<path d="M75.0996 66.124L87.1951 83.2629" stroke="#131727" stroke-width="3.60982" stroke-linecap="round" stroke-linejoin="round"/>
<path d="M49.7664 58.3915C50.4987 57.1719 51.0685 55.9162 51.4734 54.6167L55.849 54.3769C56.1558 53.0541 56.3363 51.6824 56.3775 50.272C56.4136 48.975 56.3286 47.7039 56.1352 46.4662L51.7905 45.9093C51.4811 44.584 51.0015 43.2896 50.3569 42.0597L53.2808 38.8005C51.873 36.5392 50.0397 34.5693 47.8893 33.0042L44.4265 35.6832C43.243 34.9509 41.9873 34.3811 40.6877 33.9737L40.4479 29.6007C39.1252 29.2938 37.7535 29.1133 36.3431 29.0721C35.0461 29.036 33.775 29.1211 32.5373 29.3144L31.9804 33.6565C30.655 33.966 29.3607 34.4455 28.1282 35.0901L24.869 32.1688C22.6077 33.5766 20.6378 35.4099 19.0727 37.5603L21.7491 41.0231C21.0168 42.2066 20.4444 43.4623 20.0396 44.7619L15.6666 45.0017C15.3597 46.3244 15.1792 47.6961 15.138 49.1065C15.1019 50.4035 15.187 51.6747 15.3804 52.9123L19.7225 53.4693C20.0319 54.7946 20.5115 56.089 21.1561 57.3215L18.2347 60.5806C19.6425 62.8393 21.4758 64.8118 23.6262 66.3769L27.0891 63.7005C28.2726 64.4328 29.5283 65.0026 30.8278 65.41L31.0676 69.8217C32.3903 70.1647 33.7621 70.3452 35.1725 70.3864C36.4694 70.4225 37.7406 70.3374 38.9782 70.144L39.5352 65.8019C40.8605 65.4925 42.1549 65.0129 43.3874 64.3683L46.6465 67.2897C48.9078 65.8819 50.8777 64.0486 52.4429 61.8982L49.7664 58.3992V58.3915Z" stroke="#131727" stroke-width="3.60982" stroke-linecap="round" stroke-linejoin="round"/>
<path d="M36.0057 40.9845C40.8145 41.1212 44.5997 45.1281 44.463 49.9369C44.3264 54.7457 40.3195 58.5308 35.5107 58.3942C30.7019 58.2575 26.9167 54.2506 27.0534 49.4418C27.19 44.6356 31.1969 40.8479 36.0057 40.9845Z" stroke="#131727" stroke-width="3.60982" stroke-linecap="round" stroke-linejoin="round"/>
</g>
<defs>
<clipPath id="clip0_1_265">
<rect width="89" height="88.4843" fill="white"/>
</clipPath>
</defs>
</svg>
