<svg width="110" height="98" viewBox="0 0 110 98" fill="none" xmlns="http://www.w3.org/2000/svg">
<circle cx="61.8726" cy="14.0347" r="13.186" fill="#D2147D" fill-opacity="0.4"/>
<circle cx="43.506" cy="55.006" r="42.8547" fill="#D2147D" fill-opacity="0.1"/>
<circle cx="86.8316" cy="59.7149" r="19.3081" fill="#D2147D" fill-opacity="0.1"/>
<g clip-path="url(#clip0_1_269)">
<path d="M62.9516 49.4102C67.0312 49.4102 70.3374 53.0036 70.3374 57.4351C70.3374 60.4296 68.828 63.0402 66.5908 64.4179C65.4923 65.1189 64.2139 65.5244 62.8496 65.5244C58.77 65.5244 55.4639 61.931 55.4639 57.4995C55.4639 54.505 56.9732 51.8971 59.2078 50.5167C60.3062 49.813 61.5846 49.4102 62.9516 49.4102Z" stroke="#131727" stroke-width="3.76" stroke-linecap="round" stroke-linejoin="round"/>
<path d="M73.5742 93.5258L73.499 83.7524" stroke="#131727" stroke-width="3.76" stroke-linecap="round" stroke-linejoin="round"/>
<path d="M80.6321 93.5257L79.9553 76.6647C79.684 69.886 47.5414 70.3909 46.502 76.5976C45.7473 80.0085 45.5674 87.3002 45.4707 93.5257" stroke="#131727" stroke-width="3.76" stroke-linecap="round" stroke-linejoin="round"/>
<path d="M52.9014 83.7524L52.8262 93.5258" stroke="#131727" stroke-width="3.76" stroke-linecap="round" stroke-linejoin="round"/>
<path d="M35.8803 71.1754C27.85 71.1404 19.4947 72.7465 18.9871 75.7894C18.2996 78.8914 18.1143 88.0229 18.0176 93.5286" stroke="#131727" stroke-width="3.76" stroke-linecap="round" stroke-linejoin="round"/>
<path d="M25.094 82.3799L25.043 93.5256" stroke="#131727" stroke-width="3.76" stroke-linecap="round" stroke-linejoin="round"/>
<path d="M34.6841 49.0127C38.7637 49.0127 42.0698 52.6062 42.0698 57.0376C42.0698 60.0322 40.5604 62.6427 38.3232 64.0205C37.2247 64.7214 35.9463 65.127 34.582 65.127C30.5024 65.127 27.1963 61.5335 27.1963 57.1021C27.1963 54.1075 28.7057 51.4997 30.9402 50.1192C32.0386 49.4156 33.317 49.0127 34.6841 49.0127Z" stroke="#131727" stroke-width="3.76" stroke-linecap="round" stroke-linejoin="round"/>
<path d="M101.36 93.5256L101.309 82.3799" stroke="#131727" stroke-width="3.76" stroke-linecap="round" stroke-linejoin="round"/>
<path d="M108.09 93.5257L107.464 75.8511C107.338 72.2522 97.742 70.8073 89.1289 71.2504" stroke="#131727" stroke-width="3.76" stroke-linecap="round" stroke-linejoin="round"/>
<path d="M91.2505 49.0127C95.3301 49.0127 98.6362 52.6062 98.6362 57.0376C98.6362 60.0322 97.1268 62.6427 94.8896 64.0205C93.7911 64.7214 92.5128 65.127 91.1484 65.127C87.0688 65.127 83.7627 61.5335 83.7627 57.1021C83.7627 54.1075 85.2721 51.4997 87.5066 50.1192C88.605 49.4156 89.8834 49.0127 91.2505 49.0127Z" stroke="#131727" stroke-width="3.76" stroke-linecap="round" stroke-linejoin="round"/>
<path d="M76.5688 28.3779C80.4712 28.3779 83.6376 31.8156 83.6376 36.0564C83.6376 38.922 82.1927 41.4198 80.0522 42.7384C79.0021 43.4099 77.7774 43.7966 76.4721 43.7966C72.5698 43.7966 69.4033 40.3589 69.4033 36.1182C69.4033 33.2525 70.8455 30.7548 72.9861 29.4361C74.0362 28.7647 75.2609 28.3779 76.5688 28.3779Z" stroke="#131727" stroke-width="3.76" stroke-linecap="round" stroke-linejoin="round"/>
<path d="M90.3644 5.87988C94.0466 5.87988 97.0331 9.12423 97.0331 13.1259C97.0331 15.8278 95.6714 18.1858 93.6517 19.432C92.6607 20.0658 91.5059 20.4311 90.2731 20.4311C86.591 20.4311 83.6045 17.1867 83.6045 13.185C83.6045 10.4832 84.9661 8.12514 86.9858 6.88165C87.9768 6.24783 89.1317 5.88257 90.3644 5.88257V5.87988Z" stroke="#131727" stroke-width="3.76" stroke-linecap="round" stroke-linejoin="round"/>
<path d="M100.96 45.2093L100.917 39.4404" stroke="#131727" stroke-width="3.76" stroke-linecap="round" stroke-linejoin="round"/>
<path d="M108.12 54.561L107.37 32.3528C107.333 31.2544 106.444 30.3466 104.994 29.6242C103.543 28.9017 101.521 28.3619 99.2004 28.002C96.88 27.6421 94.256 27.4595 91.6025 27.4487" stroke="#131727" stroke-width="3.76" stroke-linecap="round" stroke-linejoin="round"/>
<path d="M49.4321 28.397C45.5297 28.397 42.3633 31.8347 42.3633 36.0754C42.3633 38.9411 43.8082 41.4388 45.9487 42.7575C46.9988 43.4289 48.2235 43.8157 49.5288 43.8157C53.4311 43.8157 56.5976 40.3779 56.5976 36.1372C56.5976 33.2715 55.1553 30.7738 53.0148 29.4551C51.9647 28.7837 50.74 28.397 49.4321 28.397Z" stroke="#131727" stroke-width="3.76" stroke-linecap="round" stroke-linejoin="round"/>
<path d="M35.6354 5.87988C31.9533 5.87988 28.9668 9.12423 28.9668 13.1259C28.9668 15.8278 30.3285 18.1858 32.3481 19.432C33.3391 20.0658 34.494 20.4311 35.7267 20.4311C39.4089 20.4311 42.3954 17.1867 42.3954 13.185C42.3954 10.4832 41.0337 8.12514 39.0141 6.88165C38.023 6.24783 36.8682 5.88257 35.6354 5.88257V5.87988Z" stroke="#131727" stroke-width="3.76" stroke-linecap="round" stroke-linejoin="round"/>
<path d="M25.04 45.2093L25.083 39.4404" stroke="#131727" stroke-width="3.76" stroke-linecap="round" stroke-linejoin="round"/>
<path d="M17.8809 54.8325L18.0689 46.3215L18.2569 41.6645L18.4449 37.0074L18.6329 32.3504C18.6758 31.2519 19.5594 30.3442 21.0097 29.6217C22.46 28.8993 24.4823 28.3594 26.8028 27.9995C29.1233 27.6397 31.7472 27.457 34.4007 27.4463" stroke="#131727" stroke-width="3.76" stroke-linecap="round" stroke-linejoin="round"/>
<path d="M62.7853 5.87988C66.4674 5.87988 69.454 9.12423 69.454 13.1259C69.454 15.8278 68.0923 18.1858 66.0726 19.432C65.0816 20.0658 63.9268 20.4311 62.694 20.4311C59.0119 20.4311 56.0254 17.1867 56.0254 13.185C56.0254 10.4832 57.387 8.12514 59.4067 6.88165C60.3977 6.24783 61.5526 5.88257 62.7853 5.88257V5.87988Z" stroke="#131727" stroke-width="3.76" stroke-linecap="round" stroke-linejoin="round"/>
</g>
<defs>
<clipPath id="clip0_1_269">
<rect width="94" height="91.4056" fill="white" transform="translate(16 4)"/>
</clipPath>
</defs>
</svg>
