<svg width="200" height="150" viewBox="0 0 200 150" fill="none" xmlns="http://www.w3.org/2000/svg">
<g clip-path="url(#clip0_547_131)">
<path d="M144.184 80.5C144.184 71.8471 141.348 63.4323 136.11 56.5416C130.871 49.651 123.519 44.6635 115.176 42.3414C106.833 40.0194 97.9592 40.4905 89.9097 43.6827C81.8602 46.875 75.0782 52.6128 70.6002 60.0192C66.1222 67.4256 64.1945 76.0933 65.1117 84.6976C66.0289 93.3019 69.7406 101.369 75.6796 107.667C81.6185 113.965 89.4579 118.147 97.9998 119.574C106.542 121 115.316 119.593 122.982 115.567" stroke="black" stroke-width="3" stroke-miterlimit="10"/>
<path d="M104.535 106.909C119.133 106.909 130.967 95.0854 130.967 80.5C130.967 65.9147 119.133 54.0909 104.535 54.0909C89.9375 54.0909 78.1035 65.9147 78.1035 80.5C78.1035 95.0854 89.9375 106.909 104.535 106.909Z" stroke="black" stroke-width="3" stroke-miterlimit="10"/>
<path d="M136.971 72.3132L144.183 80.5L150.489 72.0114" stroke="black" stroke-width="3" stroke-miterlimit="10"/>
<path d="M122.982 115.568C132.193 110.744 139.132 102.489 142.297 92.5916C142.735 91.2557 143.094 89.8952 143.373 88.5171" stroke="black" stroke-width="3" stroke-miterlimit="10" stroke-dasharray="2 2"/>
<path d="M87.543 95.5909V94.5157C87.543 88.0454 93.358 84.2727 100.513 84.2727H108.556C115.712 84.2727 121.527 88.0454 121.527 94.5345V95.5909" stroke="black" stroke-width="3" stroke-miterlimit="10"/>
<path d="M105.631 61.6364H103.441C99.8752 61.6364 96.9844 64.5247 96.9844 68.0877V72.1623C96.9844 75.7253 99.8752 78.6136 103.441 78.6136H105.631C109.197 78.6136 112.088 75.7253 112.088 72.1623V68.0877C112.088 64.5247 109.197 61.6364 105.631 61.6364Z" stroke="black" stroke-width="3" stroke-miterlimit="10"/>
<circle cx="103.276" cy="72.2759" r="6.27586" fill="#D2147D" fill-opacity="0.4"/>
</g>
<circle cx="96.5" cy="74.5" r="47.5" fill="#D2147D" fill-opacity="0.1"/>
<defs>
<clipPath id="clip0_547_131">
<rect width="89" height="83" fill="white" transform="translate(61 39)"/>
</clipPath>
</defs>
</svg>
