<svg width="145" height="134" viewBox="0 0 145 134" fill="none" xmlns="http://www.w3.org/2000/svg">
<circle cx="59" cy="14" r="14" fill="#D2147D" fill-opacity="0.4"/>
<circle cx="103" cy="92" r="42" fill="#D2147D" fill-opacity="0.1"/>
<circle cx="22.5" cy="76.5" r="22.5" fill="#D2147D" fill-opacity="0.15"/>
<g clip-path="url(#clip0_142_7515)">
<path d="M60.6909 49.5668H56.7031V53.5546H60.6909V49.5668Z" fill="#231F20"/>
<path d="M96.2983 49.5668H92.3105V53.5546H96.2983V49.5668Z" fill="#231F20"/>
<path d="M31.9868 104C31.4599 104 30.9545 103.791 30.5819 103.418C30.2093 103.045 30 102.54 30 102.013V90.1345C30 89.6076 30.2093 89.1022 30.5819 88.7297C30.9545 88.357 31.4599 88.1477 31.9868 88.1477H34.96C35.2179 88.1477 35.4652 88.0453 35.6475 87.863C35.8298 87.6806 35.9323 87.4333 35.9323 87.1755V66.4055C35.936 65.0911 36.4598 63.8317 37.3891 62.9023C38.3185 61.9729 39.5779 61.4492 40.8923 61.4455H43.8655C44.1233 61.4455 44.3706 61.343 44.553 61.1607C44.7353 60.9783 44.8377 60.731 44.8377 60.4732V42.6623C44.8599 41.3602 45.3917 40.1187 46.3191 39.2045C47.2465 38.2903 48.4955 37.7762 49.7977 37.7727H59.6614C59.8347 37.7712 60.0045 37.7234 60.1532 37.6342C60.3018 37.545 60.4239 37.4177 60.5068 37.2655C60.5933 37.1129 60.6387 36.9406 60.6387 36.7652C60.6387 36.5899 60.5933 36.4175 60.5068 36.265C58.1802 32.9538 56.8681 29.0368 56.7305 24.9923C56.7727 18.0455 60.6477 11 68.1864 11C71.2723 11 73.8227 12.8036 75.8659 14.5791C76.0447 14.7256 76.2688 14.8057 76.5 14.8057C76.7312 14.8057 76.9553 14.7256 77.1341 14.5791C79.1914 12.8036 81.7277 11 84.8136 11C92.3523 11 96.2977 18.0455 96.2977 24.8655C96.1601 28.91 94.8479 32.827 92.5214 36.1382C92.4349 36.2907 92.3895 36.4631 92.3895 36.6384C92.3895 36.8137 92.4349 36.9861 92.5214 37.1386C92.5889 37.321 92.7097 37.4789 92.8679 37.5919C93.0262 37.705 93.2147 37.7679 93.4091 37.7727H103.273C104.587 37.7764 105.846 38.3002 106.776 39.2296C107.705 40.159 108.229 41.4184 108.233 42.7327V60.4732C108.233 60.731 108.335 60.9783 108.517 61.1607C108.7 61.343 108.947 61.4455 109.205 61.4455H112.178C113.493 61.4492 114.752 61.9729 115.681 62.9023C116.611 63.8317 117.134 65.0911 117.138 66.4055V87.1755C117.138 87.4333 117.241 87.6806 117.423 87.863C117.605 88.0453 117.853 88.1477 118.11 88.1477H121.084C121.598 88.166 122.086 88.3833 122.443 88.754C122.801 89.1246 123 89.6196 123 90.1345V102.013C123 102.54 122.791 103.045 122.418 103.418C122.045 103.791 121.54 104 121.013 104H31.9868ZM34.96 92.1355C34.7021 92.1355 34.4548 92.2379 34.2725 92.4202C34.0902 92.6026 33.9877 92.8499 33.9877 93.1077V99.04C33.9877 99.2979 34.0902 99.5452 34.2725 99.7275C34.4548 99.9098 34.7021 100.012 34.96 100.012H118.096C118.354 100.012 118.602 99.9098 118.784 99.7275C118.966 99.5452 119.069 99.2979 119.069 99.04V93.1077C119.069 92.8499 118.966 92.6026 118.784 92.4202C118.602 92.2379 118.354 92.1355 118.096 92.1355H34.96ZM52.7568 71.2668C52.6063 71.27 52.4584 71.3072 52.3242 71.3755C52.19 71.4438 52.073 71.5415 51.9818 71.6614C50.7071 73.407 49.0384 74.8272 47.1115 75.8066C45.1846 76.7859 43.0538 77.2968 40.8923 77.2977C40.6344 77.2977 40.3871 77.4002 40.2048 77.5825C40.0224 77.7648 39.92 78.0121 39.92 78.27V87.1755C39.92 87.4333 40.0224 87.6806 40.2048 87.863C40.3871 88.0453 40.6344 88.1477 40.8923 88.1477H112.108C112.366 88.1477 112.613 88.0453 112.795 87.863C112.978 87.6806 113.08 87.4333 113.08 87.1755V78.27C113.08 78.0121 112.978 77.7648 112.795 77.5825C112.613 77.4002 112.366 77.2977 112.108 77.2977C109.946 77.2968 107.815 76.7859 105.888 75.8066C103.962 74.8272 102.293 73.407 101.018 71.6614C100.928 71.539 100.81 71.4395 100.674 71.371C100.538 71.3025 100.388 71.2668 100.236 71.2668C100.084 71.2668 99.934 71.3025 99.7982 71.371C99.6623 71.4395 99.5445 71.539 99.4541 71.6614C98.1804 73.4082 96.512 74.8294 94.5849 75.8092C92.6578 76.7891 90.5264 77.2998 88.3645 77.2998C86.2026 77.2998 84.0713 76.7891 82.1442 75.8092C80.2171 74.8294 78.5487 73.4082 77.275 71.6614C77.1861 71.5391 77.0696 71.4396 76.9349 71.371C76.8002 71.3024 76.6512 71.2666 76.5 71.2666C76.3488 71.2666 76.1998 71.3024 76.0651 71.371C75.9304 71.4396 75.8139 71.5391 75.725 71.6614C74.4513 73.4082 72.7829 74.8294 70.8558 75.8092C68.9287 76.7891 66.7974 77.2998 64.6355 77.2998C62.4736 77.2998 60.3422 76.7891 58.4151 75.8092C56.488 74.8294 54.8196 73.4082 53.5459 71.6614C53.4526 71.5404 53.3331 71.4421 53.1965 71.3738C53.0599 71.3055 52.9096 71.2689 52.7568 71.2668ZM103.71 65.4332C103.554 65.4333 103.401 65.4707 103.263 65.5423C103.125 65.6138 103.006 65.7174 102.916 65.8444C102.827 65.9714 102.769 66.1181 102.747 66.2721C102.726 66.4261 102.742 66.583 102.794 66.7295C103.474 68.6559 104.735 70.3235 106.403 71.5023C108.072 72.681 110.065 73.3127 112.108 73.31C112.366 73.31 112.613 73.2076 112.795 73.0252C112.978 72.8429 113.08 72.5956 113.08 72.3377V66.4055C113.08 66.1476 112.978 65.9003 112.795 65.718C112.613 65.5356 112.366 65.4332 112.108 65.4332H103.71ZM79.9805 65.4332C79.8233 65.4302 79.6679 65.4659 79.5278 65.5372C79.3878 65.6084 79.2674 65.7131 79.1773 65.8418C79.0885 65.9697 79.0308 66.1166 79.0088 66.2707C78.9868 66.4248 79.0011 66.5819 79.0505 66.7295C79.7243 68.6627 80.9829 70.3384 82.6518 71.5241C84.3208 72.7098 86.3173 73.3468 88.3645 73.3468C90.4118 73.3468 92.4083 72.7098 94.0773 71.5241C95.7462 70.3384 97.0048 68.6627 97.6786 66.7295C97.7315 66.5825 97.7476 66.4247 97.7255 66.2699C97.7034 66.1152 97.6438 65.9682 97.5518 65.8418C97.4648 65.7133 97.3471 65.6085 97.2092 65.5372C97.0714 65.4658 96.9179 65.43 96.7627 65.4332H79.9805ZM56.2373 65.4332C56.0821 65.43 55.9286 65.4658 55.7908 65.5372C55.6529 65.6085 55.5352 65.7133 55.4482 65.8418C55.3562 65.9682 55.2966 66.1152 55.2745 66.2699C55.2524 66.4247 55.2685 66.5825 55.3214 66.7295C55.9952 68.6627 57.2538 70.3384 58.9227 71.5241C60.5917 72.7098 62.5882 73.3468 64.6355 73.3468C66.6827 73.3468 68.6792 72.7098 70.3482 71.5241C72.0171 70.3384 73.2757 68.6627 73.9495 66.7295C73.9989 66.5819 74.0132 66.4248 73.9912 66.2707C73.9692 66.1166 73.9115 65.9697 73.8227 65.8418C73.7326 65.7131 73.6122 65.6084 73.4722 65.5372C73.3321 65.4659 73.1767 65.4302 73.0195 65.4332H56.2373ZM40.8923 65.4332C40.6344 65.4332 40.3871 65.5356 40.2048 65.718C40.0224 65.9003 39.92 66.1476 39.92 66.4055V72.3377C39.92 72.5956 40.0224 72.8429 40.2048 73.0252C40.3871 73.2076 40.6344 73.31 40.8923 73.31C42.9351 73.3127 44.9283 72.681 46.5967 71.5023C48.2651 70.3235 49.5264 68.6559 50.2064 66.7295C50.2582 66.583 50.2741 66.4261 50.2528 66.2721C50.2314 66.1181 50.1735 65.9714 50.0838 65.8444C49.9941 65.7174 49.8752 65.6138 49.7372 65.5423C49.5991 65.4707 49.4459 65.4333 49.2905 65.4332H40.8923ZM49.7977 41.69C49.5399 41.69 49.2926 41.7924 49.1102 41.9748C48.9279 42.1571 48.8255 42.4044 48.8255 42.6623V60.4732C48.8255 60.731 48.9279 60.9783 49.1102 61.1607C49.2926 61.343 49.5399 61.4455 49.7977 61.4455H103.273C103.531 61.4455 103.778 61.343 103.96 61.1607C104.143 60.9783 104.245 60.731 104.245 60.4732V42.6623C104.245 42.4044 104.143 42.1571 103.96 41.9748C103.778 41.7924 103.531 41.69 103.273 41.69H88.5618C88.2971 41.6915 88.0437 41.7979 87.8573 41.9859C84.7632 45.1434 81.3111 47.9288 77.5709 50.2855C77.4592 50.3457 77.341 50.393 77.2186 50.4264L77.0495 50.4968H76.655H76.5H76.0632L75.8377 50.4545L75.5136 50.3277H75.4291C71.6887 47.9605 68.2367 45.1657 65.1427 42C64.9563 41.812 64.7029 41.7056 64.4382 41.7041L49.7977 41.69ZM68.1864 14.9173C63.2686 14.9173 60.69 19.8773 60.69 24.7809C60.69 34.9686 73.3718 44.0714 75.9364 45.7905C76.0991 45.8994 76.2901 45.9582 76.4859 45.9595C76.6819 45.9599 76.8735 45.9009 77.0355 45.7905C81.6291 42.6482 92.31 34.3064 92.31 24.7809C92.31 19.8632 89.7314 14.9173 84.8136 14.9173C82.7 14.9173 80.6568 16.7068 79.0223 18.1441C78.5714 18.5386 78.1627 18.905 77.7964 19.1868L77.585 19.2995C77.4673 19.369 77.3449 19.4302 77.2186 19.4827L76.8805 19.5955H76.1336C76.0166 19.5723 75.903 19.5345 75.7955 19.4827C75.6623 19.4358 75.5347 19.3743 75.415 19.2995L75.2036 19.1868C74.8373 18.8909 74.4286 18.5386 73.9777 18.1441C72.2727 16.7773 70.3 14.9877 68.1864 14.9877V14.9173Z" fill="#231F20"/>
</g>
<defs>
<clipPath id="clip0_142_7515">
<rect width="93" height="93" fill="white" transform="translate(30 11)"/>
</clipPath>
</defs>
</svg>
