<svg width="104" height="125" viewBox="0 0 104 125" fill="none" xmlns="http://www.w3.org/2000/svg">
<circle cx="40.4149" cy="39.7899" r="39.6473" fill="#D2147D" fill-opacity="0.1"/>
<circle cx="75.7631" cy="58.8969" r="14.808" fill="#D2147D" fill-opacity="0.1"/>
<circle cx="75.2853" cy="113.83" r="10.5089" fill="#D2147D" fill-opacity="0.4"/>
<g clip-path="url(#clip0_1_246)">
<path d="M42.575 24.8848C40.0147 24.8848 37.6966 25.924 36.0193 27.6013C34.342 29.2786 33.3027 31.5967 33.3027 34.1598C33.3027 35.8909 33.7766 37.509 34.6004 38.8955C35.4243 40.2821 36.6008 41.4344 38.0062 42.2313C39.4331 43.0713 41.0485 43.5075 42.7043 43.5075C45.2647 43.5075 47.5827 42.4682 49.26 40.7909C50.9374 39.1136 51.9766 36.7955 51.9766 34.2325C51.9766 32.5013 51.5027 30.8832 50.6789 29.4994C49.855 28.1128 48.6785 26.9605 47.2758 26.1636C45.8489 25.3236 44.2308 24.8848 42.575 24.8848Z" stroke="#131727" stroke-width="3.76923" stroke-linecap="round" stroke-linejoin="round"/>
<path d="M41.8748 85.8441L41.8963 113.992C41.9017 120.621 30.1471 120.521 30.2171 113.893L30.4567 94.0933L30.6048 75.5137" stroke="#131727" stroke-width="3.76923" stroke-linecap="round" stroke-linejoin="round"/>
<path d="M29.4099 63.3417L22.1999 75.9929C18.8399 84.829 11.5599 79.0783 13.0918 75.0533L23.1637 53.916C23.8018 51.5602 26.9249 50.0283 32.6676 49.2744" stroke="#131727" stroke-width="3.76923" stroke-linecap="round" stroke-linejoin="round"/>
<path d="M52.0117 49.1201C56.6909 49.9628 60.1371 51.3655 60.584 53.304L62.6436 59.5178" stroke="#131727" stroke-width="3.76923" stroke-linecap="round" stroke-linejoin="round"/>
<path d="M54.1568 104.79C54.1622 105.213 53.9306 114.778 53.8525 115.145C52.571 121.06 41.8933 120.144 41.8906 113.893" stroke="#131727" stroke-width="3.76923" stroke-linecap="round" stroke-linejoin="round"/>
<path d="M76.9346 113.606C62.4096 107.319 52.6016 95.3871 52.6016 81.7048C52.6016 74.6914 52.685 69.0294 52.685 62.0106C54.8631 64.5737 58.7508 66.3237 64.3023 66.3237C69.8539 66.3237 75.4377 63.8171 76.9346 60.4141C78.4316 63.8198 84.0154 66.3237 89.5669 66.3237C95.1185 66.3237 99.0062 64.5737 101.184 62.0106C101.184 69.0294 101.268 74.6914 101.268 81.7048C101.268 95.3898 91.4596 107.319 76.9346 113.606Z" stroke="#131727" stroke-width="3.76923" stroke-linecap="round" stroke-linejoin="round"/>
<path d="M67.3584 87.1196L74.0946 95.9126L87.8522 78.1084" stroke="#131727" stroke-width="3.76923" stroke-linecap="round" stroke-linejoin="round"/>
</g>
<defs>
<clipPath id="clip0_1_246">
<rect width="92.1523" height="98" fill="white" transform="translate(11 23)"/>
</clipPath>
</defs>
</svg>
