<svg width="115" height="111" viewBox="0 0 115 111" fill="none" xmlns="http://www.w3.org/2000/svg">
<circle cx="88.0911" cy="27.3304" r="26.7738" fill="#D2147D" fill-opacity="0.4"/>
<circle cx="45.9552" cy="65.0768" r="45.2081" fill="#D2147D" fill-opacity="0.1"/>
<g clip-path="url(#clip0_1_274)">
<path d="M101.026 26.8617C101.198 27.6964 101.288 28.5606 101.288 29.4443C101.288 31.2142 100.928 32.9009 100.28 34.4358C99.631 35.9683 98.6909 37.3514 97.533 38.5118C96.3727 39.6721 94.992 40.6097 93.4571 41.2584C91.9222 41.9072 90.2379 42.267 88.4656 42.267C86.6932 42.267 85.009 41.9072 83.474 41.2584C81.9416 40.6097 80.5585 39.6721 79.3981 38.5118C78.2377 37.3514 77.3002 35.9707 76.6514 34.4358C76.0027 32.9009 75.6428 31.2142 75.6428 29.4443C75.6428 27.6744 76.0027 25.9877 76.6514 24.4528C77.3002 22.9179 78.2402 21.5372 79.3981 20.3769C80.5585 19.2165 81.9391 18.2789 83.474 17.6302C84.2403 17.3046 85.0457 17.0524 85.8805 16.8835C86.7152 16.7122 87.5794 16.624 88.4656 16.624C89.3517 16.624 90.2159 16.7146 91.0507 16.8835M41.4612 15.7134C45.1528 15.7134 48.1467 18.9888 48.1467 23.0281C48.1467 25.7576 46.7807 28.1371 44.7562 29.3929C43.7623 30.0318 42.6044 30.4015 41.3682 30.4015C37.6765 30.4015 34.6826 27.126 34.6826 23.0868C34.6826 20.3573 36.0486 17.9802 38.0707 16.722C39.0646 16.0806 40.2225 15.7134 41.4587 15.7134H41.4612Z" stroke="#131727" stroke-width="3.42722" stroke-linecap="round" stroke-linejoin="round"/>
<path d="M82.334 28.9304L87.0954 35.1434L99.759 18.1982" stroke="#131727" stroke-width="3.42722" stroke-linecap="round" stroke-linejoin="round"/>
<path d="M101.026 54.1943C101.197 55.029 101.288 55.8932 101.288 56.7769C101.288 58.5468 100.928 60.2335 100.279 61.7684C99.6307 63.3009 98.6907 64.684 97.5327 65.8444C96.3724 67.0047 94.9917 67.9423 93.4568 68.5911C91.9219 69.2398 90.2377 69.5996 88.4653 69.5996C86.6929 69.5996 85.0087 69.2398 83.4738 68.5911C81.9413 67.9423 80.5582 67.0047 79.3978 65.8444C78.2375 64.684 77.2999 63.3033 76.6512 61.7684C76.0024 60.2335 75.6426 58.5468 75.6426 56.7769C75.6426 55.007 76.0024 53.3203 76.6512 51.7854C77.2999 50.2505 78.2399 48.8698 79.3978 47.7095" stroke="#131727" stroke-width="3.42722" stroke-linecap="round" stroke-linejoin="round"/>
<path d="M82.334 56.1428L87.0954 62.3534L99.759 45.4082" stroke="#131727" stroke-width="3.42722" stroke-linecap="round" stroke-linejoin="round"/>
<path d="M101.026 81.4037C101.197 82.2385 101.288 83.1027 101.288 83.9864C101.288 85.7563 100.928 87.443 100.279 88.9779C99.6307 90.5104 98.6907 91.8935 97.5327 93.0539C96.3724 94.2142 94.9917 95.1518 93.4568 95.8005C91.9219 96.4493 90.2377 96.8091 88.4653 96.8091C86.6929 96.8091 85.0087 96.4493 83.4738 95.8005C81.9413 95.1518 80.5582 94.2142 79.3978 93.0539C78.2375 91.8935 77.2999 90.5128 76.6512 88.9779C76.0024 87.443 75.6426 85.7563 75.6426 83.9864C75.6426 82.2165 76.0024 80.5298 76.6512 78.9949C77.2999 77.46 78.2399 76.0793 79.3978 74.9189" stroke="#131727" stroke-width="3.42722" stroke-linecap="round" stroke-linejoin="round"/>
<path d="M82.334 83.3527L87.0954 89.5658L99.759 72.6182" stroke="#131727" stroke-width="3.42722" stroke-linecap="round" stroke-linejoin="round"/>
<path d="M26.1717 66.5545C22.742 65.4921 23.8461 61.776 24.0272 59.2301L25.3614 40.5958C25.8192 34.1795 56.0571 34.6471 57.1293 40.5321M41.3617 69.6611L41.3421 92.9735C41.3372 98.768 51.3569 98.6921 51.2933 92.8854L51.0852 76.8827L50.8208 47.3131M56.6593 66.5545C60.089 65.4921 58.9849 61.776 58.8038 59.2301L57.4696 40.5958M32.2991 47.3156L32.0347 76.8852L31.8266 92.8878C31.7654 98.6921 41.3445 98.7802 41.3396 92.976" stroke="#131727" stroke-width="3.42722" stroke-linecap="round" stroke-linejoin="round"/>
</g>
<defs>
<clipPath id="clip0_1_274">
<rect width="81" height="84.9952" fill="white" transform="translate(22 14)"/>
</clipPath>
</defs>
</svg>
