<svg width="48" height="47" viewBox="0 0 48 47" fill="none" xmlns="http://www.w3.org/2000/svg">
<path fill-rule="evenodd" clip-rule="evenodd" d="M24.0278 0C11.2792 0 0.944458 10.3348 0.944458 23.0833C0.944458 35.8319 11.2792 46.1667 24.0278 46.1667C36.7764 46.1667 47.1111 35.8319 47.1111 23.0833C47.1111 10.3348 36.7764 0 24.0278 0ZM18.9528 10.8469C20.266 10.7871 20.6856 10.7725 24.0291 10.7725H24.0253C27.3698 10.7725 27.7879 10.7871 29.1011 10.8469C30.4117 10.9069 31.3069 11.1144 32.0917 11.4188C32.9022 11.733 33.587 12.1536 34.2718 12.8385C34.9566 13.5228 35.3773 14.2096 35.6928 15.0193C35.9954 15.8021 36.2032 16.6967 36.2647 18.0074C36.3237 19.3206 36.3391 19.7402 36.3391 23.0837C36.3391 26.4272 36.3237 26.8458 36.2647 28.159C36.2032 29.4691 35.9954 30.364 35.6928 31.1471C35.3773 31.9565 34.9566 32.6434 34.2718 33.3277C33.5878 34.0125 32.9019 34.4342 32.0925 34.7486C31.3092 35.0531 30.4135 35.2606 29.1029 35.3206C27.7897 35.3803 27.3714 35.395 24.0276 35.395C20.6843 35.395 20.265 35.3803 18.9518 35.3206C17.6414 35.2606 16.7465 35.0531 15.9632 34.7486C15.154 34.4342 14.4671 34.0125 13.7831 33.3277C13.0985 32.6434 12.6779 31.9565 12.3632 31.1468C12.059 30.364 11.8515 29.4694 11.7912 28.1588C11.7317 26.8456 11.7169 26.4272 11.7169 23.0837C11.7169 19.7402 11.7323 19.3203 11.791 18.0071C11.85 16.697 12.0577 15.8021 12.363 15.0191C12.6784 14.2096 13.0991 13.5228 13.7839 12.8385C14.4682 12.1539 15.155 11.7333 15.9648 11.4188C16.7475 11.1144 17.6422 10.9069 18.9528 10.8469Z" fill="white"/>
<path fill-rule="evenodd" clip-rule="evenodd" d="M22.9248 12.9899C23.1393 12.9896 23.37 12.9897 23.6189 12.9898L24.0292 12.9899C27.3163 12.9899 27.7059 13.0017 29.004 13.0607C30.2043 13.1156 30.8558 13.3161 31.2898 13.4847C31.8643 13.7078 32.2739 13.9745 32.7046 14.4054C33.1354 14.8363 33.4022 15.2467 33.6258 15.8212C33.7944 16.2547 33.9952 16.9062 34.0498 18.1065C34.1088 19.4043 34.1216 19.7942 34.1216 23.0797C34.1216 26.3653 34.1088 26.7551 34.0498 28.053C33.9949 29.2533 33.7944 29.9048 33.6258 30.3382C33.4027 30.9128 33.1354 31.3218 32.7046 31.7525C32.2737 32.1834 31.8646 32.4501 31.2898 32.6733C30.8563 32.8425 30.2043 33.0426 29.004 33.0975C27.7062 33.1565 27.3163 33.1693 24.0292 33.1693C20.7419 33.1693 20.3523 33.1565 19.0545 33.0975C17.8541 33.0421 17.2027 32.8415 16.7684 32.673C16.1939 32.4499 15.7835 32.1831 15.3526 31.7522C14.9217 31.3213 14.655 30.912 14.4313 30.3372C14.2628 29.9037 14.062 29.2523 14.0074 28.0519C13.9484 26.7541 13.9366 26.3643 13.9366 23.0766C13.9366 19.789 13.9484 19.4012 14.0074 18.1034C14.0623 16.9031 14.2628 16.2516 14.4313 15.8176C14.6545 15.2431 14.9217 14.8327 15.3526 14.4018C15.7835 13.9709 16.1939 13.7042 16.7684 13.4805C17.2024 13.3113 17.8541 13.1112 19.0545 13.0561C20.1902 13.0048 20.6303 12.9894 22.9248 12.9868V12.9899ZM30.6006 15.0337C29.785 15.0337 29.1233 15.6947 29.1233 16.5105C29.1233 17.3262 29.785 17.9879 30.6006 17.9879C31.4162 17.9879 32.078 17.3262 32.078 16.5105C32.078 15.6949 31.4162 15.0332 30.6006 15.0332V15.0337ZM17.707 23.0816C17.707 19.5902 20.5377 16.7594 24.0291 16.7593C27.5206 16.7593 30.3507 19.5901 30.3507 23.0816C30.3507 26.5731 27.5209 29.4027 24.0294 29.4027C20.5378 29.4027 17.707 26.5731 17.707 23.0816Z" fill="white"/>
<path fill-rule="evenodd" clip-rule="evenodd" d="M24.0288 18.9788C26.2951 18.9788 28.1325 20.816 28.1325 23.0825C28.1325 25.3488 26.2951 27.1863 24.0288 27.1863C21.7622 27.1863 19.925 25.3488 19.925 23.0825C19.925 20.816 21.7622 18.9788 24.0288 18.9788V18.9788Z" fill="white"/>
</svg>
