<svg width="109" height="81" viewBox="0 0 109 81" fill="none" xmlns="http://www.w3.org/2000/svg">
<g clip-path="url(#clip0_122_7015)">
<path d="M78.1163 18.4092C70.1782 18.4092 62.7473 21.3915 57.0248 26.859C57.0974 26.9525 57.1701 27.0615 57.2428 27.1535C57.5509 27.504 57.8241 27.8729 58.1148 28.2396C58.3691 28.5717 58.6234 28.9024 58.8589 29.2337C59.1684 29.6579 59.4402 30.0997 59.7309 30.5408C59.9118 30.8176 60.0942 31.0746 60.2752 31.3508C65.0194 26.5834 71.4349 23.9157 78.1163 23.9319C92.1409 23.9319 103.55 35.4928 103.55 49.7046C103.55 63.9165 92.1409 75.4774 78.1163 75.4774C74.3751 75.481 70.6794 74.6462 67.2939 73.0329C63.9083 71.4196 60.9168 69.0676 58.5333 66.1454C58.5333 66.1255 58.5333 66.1255 58.5144 66.1255C54.7506 61.5026 52.6892 55.6978 52.6829 49.7046C52.6829 49.1155 52.6655 48.5265 52.6103 47.9374C52.5921 47.7717 52.5739 47.6067 52.5558 47.4219C52.5194 47.0176 52.4657 46.595 52.393 46.1892C52.3724 45.9977 52.3419 45.8075 52.3014 45.6193C52.2288 45.1951 52.1379 44.7901 52.0289 44.3859C51.9926 44.2202 51.9563 44.0553 51.9025 43.8881C51.6043 42.7594 51.2155 41.6573 50.7398 40.5929C50.6622 40.4577 50.5956 40.3163 50.5407 40.1702C50.3591 39.7836 50.1585 39.397 49.9594 39.0281C49.8686 38.8632 49.7777 38.6975 49.6869 38.5502C49.5961 38.4029 49.5052 38.2557 49.4326 38.1261C47.7896 42.294 47.0528 46.7719 47.2722 51.2546C47.4917 55.7373 48.6623 60.1193 50.7042 64.102C52.0457 66.7494 53.7661 69.1812 55.8098 71.3184C61.6754 77.5576 69.5961 81.0001 78.1163 81.0001C95.1573 81.0001 109 66.954 109 49.7046C109 32.4369 95.1573 18.4092 78.1163 18.4092Z" fill="white"/>
<path d="M37.9141 24.9442C42.8009 26.3441 47.1609 29.2336 50.468 33.2659L50.4854 33.2836C54.252 37.9049 56.3138 43.7107 56.3169 49.7045C56.3169 50.2936 56.3532 50.8827 56.3896 51.4533C56.4085 51.6374 56.4259 51.8046 56.4448 51.9879C56.4986 52.3922 56.5538 52.8163 56.6076 53.2206C56.6439 53.404 56.6802 53.6072 56.7173 53.7906C56.79 54.197 56.8801 54.6197 56.9709 55.0262C57.0254 55.1911 57.0617 55.3568 57.0981 55.5041C57.399 56.6403 57.794 57.7488 58.2789 58.8177C58.3334 58.9473 58.4061 59.0754 58.4606 59.2227C58.6604 59.6093 58.8421 60.015 59.0608 60.4009C59.1509 60.5482 59.2236 60.6954 59.3144 60.8427C59.4052 60.99 59.4961 61.1373 59.5876 61.2845C61.2205 57.114 61.9503 52.6367 61.7278 48.1556C61.5053 43.6745 60.3356 39.2941 58.2978 35.3108C56.9561 32.6637 55.2359 30.232 53.193 28.0944C50.1075 24.8245 46.3658 22.2632 42.2203 20.5835L37.9141 24.9442Z" fill="white"/>
<path d="M48.5238 8.96523L42.6378 0H19.1483L13.2441 8.96523L30.884 26.8589L48.5238 8.96523Z" fill="white"/>
<path d="M50.8129 71.059C50.5949 70.7645 50.3769 70.4876 50.1589 70.2129C49.7956 69.6975 49.4686 69.1629 49.1234 68.629C48.9858 68.4457 48.8584 68.2546 48.7419 68.0569C43.9892 72.8224 37.5695 75.4898 30.8833 75.4772C16.8587 75.4772 5.45 63.9163 5.45 49.7045C5.45 38.1436 13.1527 28.0554 23.8536 24.9442L19.5662 20.5828C7.81239 25.2572 0 36.8181 0 49.7045C0 66.9538 13.8619 80.9999 30.8833 80.9999C38.8411 80.9999 46.2712 78.0176 51.993 72.5501C51.9203 72.4588 51.8477 72.3665 51.775 72.2733C51.448 71.869 51.121 71.4647 50.8129 71.059Z" fill="white"/>
</g>
<defs>
<clipPath id="clip0_122_7015">
<rect width="109" height="81" fill="white"/>
</clipPath>
</defs>
</svg>
