<svg width="48" height="47" viewBox="0 0 48 47" fill="none" xmlns="http://www.w3.org/2000/svg">
<path fill-rule="evenodd" clip-rule="evenodd" d="M23.9722 0C11.2237 0 0.888916 10.3348 0.888916 23.0833C0.888916 35.8319 11.2237 46.1667 23.9722 46.1667C36.7208 46.1667 47.0556 35.8319 47.0556 23.0833C47.0556 10.3348 36.7208 0 23.9722 0ZM23.3293 19.5603L23.2809 18.7615C23.1356 16.6914 24.4111 14.8005 26.4294 14.0669C27.1722 13.8061 28.4316 13.7735 29.255 14.0017C29.578 14.0995 30.1915 14.4256 30.6275 14.719L31.4186 15.2569L32.2905 14.9798C32.7749 14.8331 33.4208 14.5886 33.7114 14.4256C33.9859 14.2788 34.2281 14.1973 34.2281 14.2462C34.2281 14.5234 33.6307 15.4688 33.1301 15.9904C32.452 16.724 32.6458 16.7892 34.0182 16.3001C34.8417 16.023 34.8578 16.023 34.6963 16.3327C34.5995 16.4957 34.0989 17.0663 33.5661 17.5879C32.6619 18.4844 32.6135 18.5822 32.6135 19.3321C32.6135 20.4894 32.0645 22.9019 31.5155 24.2223C30.4983 26.7 28.3185 29.2592 26.1388 30.547C23.071 32.3563 18.986 32.8128 15.5468 31.7532C14.4004 31.3946 12.4306 30.4818 12.4306 30.3188C12.4306 30.2699 13.028 30.2047 13.7546 30.1884C15.2723 30.1558 16.7901 29.7319 18.0818 28.9821L18.9537 28.4605L17.9526 28.1182C16.5317 27.6291 15.2562 26.5044 14.9333 25.4448C14.8364 25.1025 14.8687 25.0862 15.7729 25.0862L16.7093 25.0699L15.9182 24.695C14.9817 24.2223 14.1259 23.4235 13.7061 22.6085C13.3994 22.0217 13.0118 20.5383 13.1249 20.4242C13.1572 20.3753 13.4962 20.4731 13.8837 20.6035C14.9978 21.011 15.1432 20.9132 14.4973 20.2286C13.2863 18.9898 12.915 17.1478 13.4962 15.4036L13.7707 14.6212L14.8364 15.6807C17.0161 17.8161 19.5834 19.0876 22.522 19.4625L23.3293 19.5603Z" fill="white"/>
</svg>
