<svg width="47" height="47" viewBox="0 0 47 47" fill="none" xmlns="http://www.w3.org/2000/svg">
<path fill-rule="evenodd" clip-rule="evenodd" d="M23.9167 0C11.1681 0 0.833374 10.3348 0.833374 23.0833C0.833374 35.8319 11.1681 46.1667 23.9167 46.1667C36.6653 46.1667 47 35.8319 47 23.0833C47 10.3348 36.6653 0 23.9167 0ZM33.5365 15.1484C34.5959 15.4391 35.4303 16.2957 35.7135 17.3835C36.228 19.3551 36.228 23.4687 36.228 23.4687C36.228 23.4687 36.228 27.5821 35.7135 29.5538C35.4303 30.6416 34.5959 31.4982 33.5365 31.7891C31.6165 32.3173 23.9169 32.3173 23.9169 32.3173C23.9169 32.3173 16.2173 32.3173 14.2972 31.7891C13.2377 31.4982 12.4033 30.6416 12.1202 29.5538C11.6058 27.5821 11.6058 23.4687 11.6058 23.4687C11.6058 23.4687 11.6058 19.3551 12.1202 17.3835C12.4033 16.2957 13.2377 15.4391 14.2972 15.1484C16.2173 14.6201 23.9169 14.6201 23.9169 14.6201C23.9169 14.6201 31.6165 14.6201 33.5365 15.1484Z" fill="white"/>
<path fill-rule="evenodd" clip-rule="evenodd" d="M21.6083 27.6993V20.0049L27.7638 23.8523L21.6083 27.6993Z" fill="white"/>
</svg>
