<svg width="200" height="56" viewBox="0 0 200 56" fill="none" xmlns="http://www.w3.org/2000/svg">
<g clip-path="url(#clip0_1_948)">
<path d="M28.5178 18.5441C28.8557 18.9542 29.2835 19.2796 29.7675 19.4949C30.2515 19.7102 30.7786 19.8094 31.3071 19.7847C33.1388 19.7009 34.8878 18.9926 36.2671 17.7762L38.9924 21.7985C36.7379 23.4844 34.0187 24.4227 31.2111 24.4837C25.7551 24.4837 21.9951 19.6934 21.9951 15.5367C21.9951 10.4135 26.0538 6.12793 30.9764 6.12793C32.7447 6.1328 34.4772 6.62934 35.9829 7.56275C37.4887 8.49616 38.7092 9.83019 39.5098 11.4177L28.5178 18.5441ZM33.3178 11.176C32.7844 10.6068 31.9205 10.4725 31.0191 10.4725C28.7578 10.4725 26.9978 12.6207 26.9978 14.8279V15.4347L33.3178 11.176Z" fill="#D2147D"/>
<path d="M42.5117 6.68072L47.2371 6.14368V8.88791H47.301C47.5748 8.07238 48.1002 7.36627 48.8006 6.8726C49.501 6.37893 50.3397 6.12354 51.1944 6.14368C51.9714 6.14089 52.7374 6.32807 53.4267 6.68914C54.116 7.05021 54.708 7.57438 55.1517 8.21662C55.713 7.55398 56.4129 7.0245 57.2013 6.66613C57.9896 6.30776 58.8469 6.12936 59.7117 6.14368C64.9011 6.14368 65.7331 10.1285 65.7331 14.2797V23.6939L60.5437 24.2309V13.5547C60.5437 11.6107 59.8131 10.8105 58.6451 10.8105C57.6477 10.8105 56.7144 11.8845 56.7144 13.5547V23.6724L51.525 24.2094V13.5547C51.525 11.8792 50.9597 10.8105 49.6317 10.8105C48.6344 10.8105 47.701 11.8845 47.701 13.5547V23.6724L42.5117 24.2094V6.68072Z" fill="#D2147D"/>
<path d="M97.3332 18.5441C97.6711 18.9542 98.0989 19.2796 98.5829 19.4949C99.0669 19.7102 99.594 19.8094 100.123 19.7847C101.954 19.6996 103.703 18.9915 105.083 17.7762L107.808 21.7985C105.553 23.4844 102.834 24.4227 100.027 24.4837C94.5705 24.4837 90.8105 19.6934 90.8105 15.5367C90.8105 10.4135 94.8692 6.12793 99.7919 6.12793C101.56 6.1328 103.293 6.62934 104.798 7.56275C106.304 8.49616 107.525 9.83019 108.325 11.4177L97.3332 18.5441ZM102.133 11.176C101.6 10.6068 100.736 10.4725 99.8399 10.4725C97.5785 10.4725 95.8132 12.6207 95.8132 14.8279V15.4347L102.133 11.176Z" fill="#D2147D"/>
<path d="M10.9597 6.14366C9.89097 6.13723 8.84121 6.42755 7.92572 6.98274C7.01024 7.53793 6.26445 8.33648 5.77032 9.29066H5.70632V6.14366L0.847656 6.68069V30.1275L6.03699 29.5905V22.4963H6.10632C7.03432 24.0376 8.99698 24.4779 10.693 24.4779C15.3543 24.4779 19.413 20.1817 19.413 15.4987C19.413 10.8158 15.9517 6.14366 10.9597 6.14366ZM14.805 14.1615C14.597 16.1325 11.4343 19.3547 10.9277 19.8541C10.9277 19.8541 7.19432 16.0949 7.01832 14.1347C6.81032 11.9866 10.2557 11.4173 10.8637 13.4473H10.965C11.5837 11.4012 15.0237 11.9919 14.805 14.1401V14.1615Z" fill="#D2147D"/>
<path d="M79.5089 6.14367C77.8129 6.14367 76.0155 6.6431 75.0502 7.88365H74.9862V0.0537109L69.7969 0.590743V14.9939C69.7969 20.9604 73.2209 24.4779 79.1409 24.4779C80.3248 24.4893 81.4992 24.2648 82.5967 23.8174C83.6941 23.37 84.6929 22.7086 85.5355 21.8711C86.3782 21.0336 87.048 20.0366 87.5066 18.9374C87.9652 17.8383 88.2034 16.6587 88.2075 15.4665C88.2235 10.5097 84.5969 6.14367 79.5089 6.14367ZM83.2102 14.1616C83.0022 16.1325 79.8342 19.3547 79.3329 19.8541C79.3329 19.8541 75.5995 16.0949 75.4235 14.1347C75.2155 11.9866 78.6609 11.4173 79.2689 13.4473H79.3702C79.9889 11.4012 83.4289 11.992 83.2102 14.1401V14.1616Z" fill="#D2147D"/>
<path d="M167.504 0.703905H167.44C167.104 -0.434603 165.162 -0.117765 165.274 1.09593C165.386 2.20758 167.477 4.31812 167.477 4.31812C167.765 4.03349 169.546 2.2237 169.664 1.09593C169.792 -0.101654 167.85 -0.434603 167.504 0.703905Z" fill="#D2147D"/>
<path d="M113.131 29.7731L111.227 30.1705V7.45404L113.131 7.05664V10.8964H113.195C113.84 9.73722 114.78 8.77117 115.917 8.09665C117.055 7.42213 118.349 7.06327 119.669 7.05664C121.957 7.08761 124.142 8.02249 125.752 9.65986C127.362 11.2972 128.269 13.506 128.277 15.8103C128.291 16.9444 128.08 18.0699 127.656 19.1209C127.232 20.172 126.605 21.1274 125.811 21.9315C125.016 22.7355 124.07 23.372 123.029 23.8037C121.987 24.2354 120.87 24.4537 119.744 24.4457C118.492 24.4748 117.251 24.2139 116.115 23.6832C114.98 23.1524 113.98 22.366 113.195 21.3847H113.131V29.7731ZM119.835 22.5608C123.744 22.5608 126.373 19.156 126.373 15.8479C126.373 11.9759 123.744 9.00069 119.771 9.00069C118.008 9.02735 116.325 9.74838 115.084 11.0093C113.843 12.2701 113.142 13.9705 113.131 15.7458C113.131 20.026 116.219 22.5393 119.835 22.5393V22.5608Z" fill="#D2147D"/>
<path d="M133.462 8.05014C134.982 7.40804 136.613 7.07059 138.262 7.05664C140.822 7.05664 143.419 8.41534 143.419 11.2562V24.0644L141.51 24.4618V22.3781H141.446C140.79 23.5972 139.344 24.4618 137.403 24.4618C134.022 24.4618 131.131 22.2761 131.131 18.6673C131.131 15.0584 133.531 12.384 137.174 12.384C138.816 12.384 140.374 13.3077 141.51 14.3012V11.514C141.51 10.1231 139.835 8.96847 137.638 8.96847C136.038 8.96847 134.283 9.79011 132.838 10.2896L133.462 8.05014ZM137.536 22.55C138.621 22.5415 139.658 22.0993 140.419 21.3208C141.18 20.5423 141.603 19.4912 141.595 18.3988C141.586 17.3063 141.147 16.262 140.374 15.4956C139.601 14.7292 138.557 14.3034 137.472 14.3119C134.939 14.3119 133.035 16.0358 133.035 18.678C133.008 21.1161 135.307 22.5393 137.51 22.5393L137.536 22.55Z" fill="#D2147D"/>
<path d="M148.154 24.3276V7.45404L150.058 7.05664V9.80087H150.128C150.635 8.98298 151.335 8.30428 152.166 7.82541C152.997 7.34655 153.933 7.08244 154.89 7.05664C158.09 7.05664 161.034 8.31328 161.034 12.9156V24.0644L159.125 24.3276V12.486C159.125 10.0694 157.584 8.77515 154.954 8.77515C153.146 8.77515 150.058 10.1016 150.058 13.3077V24.0483L148.154 24.3276Z" fill="#D2147D"/>
<path d="M168.624 7.05664V24.2417C168.624 28.4466 166.325 30.149 162.314 30.149L161.621 28.0976C162.024 28.1758 162.432 28.2207 162.842 28.2318C165.797 28.2318 166.714 26.7764 166.714 22.6413V7.45404L168.624 7.05664Z" fill="#D2147D"/>
<path d="M176.213 7.05664V18.0765C176.213 21.0517 177.392 22.738 180.218 22.738C183.306 22.738 185.28 21.6156 185.28 14.9295V7.45404L187.184 7.05664V24.0644L185.28 24.3276V21.578H185.194C184.533 23.0709 182.565 24.4618 180.032 24.4618C175.861 24.4618 174.282 22.0774 174.282 18.3075V7.45404L176.213 7.05664Z" fill="#D2147D"/>
<path d="M193.824 10.7621H193.888C195.072 7.92124 196.944 7.05664 200 7.05664L199.179 9.01145C198.928 8.98321 198.675 8.97244 198.422 8.97922C196.352 8.97922 193.824 11.557 193.824 15.7243V24.0644L191.915 24.4618V7.45404L193.824 7.05664V10.7621Z" fill="#D2147D"/>
<path d="M17.7758 39.7346C16.5972 41.6357 14.0425 42.6668 11.8665 43.1931C11.4395 43.3025 11.0042 43.3761 10.5652 43.4133C10.8802 44.4333 11.2835 45.4234 11.7705 46.3723C11.9572 46.6516 12.1438 46.8718 12.4212 46.7429C12.4638 46.7279 12.5091 46.7217 12.5542 46.7247C12.5993 46.7278 12.6434 46.7399 12.6837 46.7605C12.724 46.781 12.7598 46.8096 12.7889 46.8444C12.8181 46.8792 12.8399 46.9196 12.8532 46.9631C12.8753 47.0341 12.872 47.1106 12.8437 47.1794C12.8154 47.2481 12.764 47.3046 12.6985 47.339C12.601 47.4074 12.4886 47.4514 12.3708 47.4673C12.253 47.4831 12.1331 47.4705 12.0212 47.4303C11.6875 47.2923 11.4057 47.0517 11.2158 46.7429C10.6696 45.7184 10.2334 44.6383 9.9145 43.5207C8.85181 43.6371 7.78097 43.6587 6.7145 43.5851C5.55799 43.5496 4.42128 43.2735 3.37583 42.7743C2.7794 42.519 2.2254 42.173 1.73316 41.7485C1.73316 41.9042 1.73317 42.1191 1.6105 43.6765C1.54506 44.5967 1.43112 45.5127 1.26917 46.4207C1.23717 46.8879 0.591833 46.759 0.6185 46.324C0.809904 45.4397 0.934702 44.5421 0.991831 43.6389C1.0825 42.7957 1.1465 41.9257 1.1785 41.0826C0.660791 40.371 0.310624 39.5501 0.154502 38.6821C-0.0256459 37.8117 -0.0670506 36.918 0.0318379 36.0345C0.250505 33.6984 1.23717 32.8928 1.79717 33.5158C1.91212 33.7289 1.97975 33.9646 1.9954 34.2066C2.01106 34.4486 1.97436 34.6912 1.88784 34.9175C1.78579 34.5622 1.62923 34.2252 1.42383 33.9186C1.10843 34.3078 0.921933 34.7867 0.890497 35.288C0.597473 36.7062 0.725459 38.1798 1.2585 39.5252C1.2585 38.9882 1.2905 36.1634 1.10384 35.6962C1.04825 35.6693 1.00477 35.6223 0.982041 35.5646C0.95931 35.5069 0.959 35.4426 0.981171 35.3847C1.01317 35.229 1.16783 35.1967 1.2905 35.1967C1.7545 35.3202 1.7545 36.3191 1.82383 36.7219C1.85583 37.796 1.82383 39.9011 1.82383 40.6154C2.29914 41.2708 2.93997 41.7863 3.67984 42.1083C4.67521 42.5573 5.74311 42.8212 6.83184 42.887C7.80112 42.9721 8.77627 42.9631 9.74383 42.8602C9.45239 41.539 9.2969 40.1911 9.27984 38.8378C9.3385 36.7219 9.98917 34.5738 11.5678 33.2312C12.8958 32.0175 13.8878 31.9262 14.9385 32.2968C15.6559 32.539 16.2965 32.969 16.7945 33.5427C18.0852 34.8799 19.0718 37.6832 17.7758 39.7346ZM16.3838 33.881C15.9285 33.4082 15.3642 33.0558 14.7412 32.8553C13.9092 32.5706 13.1412 32.5706 11.9572 33.6608C10.5652 34.9712 10.0105 36.883 9.9785 38.8002C9.98314 40.133 10.1388 41.4609 10.4425 42.7581C10.8425 42.6668 11.3065 42.6346 11.7438 42.538C13.6905 42.0707 16.1972 41.0772 17.3118 39.3963C18.4212 37.6187 17.5892 35.0947 16.3838 33.881Z" fill="#D2147D"/>
<path d="M26.6831 46.3084C25.7959 46.662 24.8531 46.853 23.8991 46.8723C23.2115 46.891 22.5369 46.6815 21.9791 46.2761C21.7377 45.9838 21.5564 45.6461 21.4458 45.2826C21.3074 45.454 21.1519 45.6105 20.9818 45.7499C20.3311 46.2869 19.3818 46.9636 18.5711 47.028C18.3653 47.0354 18.1601 47.0001 17.9684 46.9243C17.7766 46.8486 17.6024 46.734 17.4564 46.5876C17.0775 46.101 16.8879 45.4919 16.9231 44.8745C16.9231 44.128 17.0191 42.9466 17.0778 42.2591C17.082 42.1723 17.1204 42.0906 17.1844 42.0322C17.2484 41.9738 17.3328 41.9434 17.4191 41.9477C17.5054 41.9519 17.5864 41.9906 17.6445 42.055C17.7025 42.1195 17.7327 42.2045 17.7284 42.2914C17.6698 43.3654 17.5738 44.128 17.5738 44.8154C17.6378 45.3525 17.6698 45.8412 17.9471 46.0936C18.0252 46.181 18.1206 46.251 18.2271 46.2991C18.3337 46.3471 18.449 46.3723 18.5658 46.3728C19.2431 46.3728 20.0804 45.8358 20.6351 45.3417C20.9209 45.0799 21.1899 44.8001 21.4404 44.5039C21.4448 44.0986 21.5187 43.697 21.6591 43.3171C21.6766 43.2527 21.7124 43.1948 21.7621 43.1505C21.8118 43.1063 21.8732 43.0776 21.9388 43.0679C22.0044 43.0582 22.0714 43.068 22.1316 43.096C22.1918 43.124 22.2426 43.1692 22.2778 43.2258C22.3457 43.423 22.3642 43.634 22.3316 43.8401C22.299 44.0462 22.2164 44.241 22.0911 44.4073C22.027 44.7919 22.0928 45.1871 22.2778 45.5297C22.468 45.8096 22.7213 46.0402 23.017 46.2027C23.3127 46.3651 23.6424 46.4547 23.9791 46.4641C24.8833 46.5339 25.7927 46.4815 26.6831 46.3084Z" fill="#D2147D"/>
<path d="M31.7545 42.0125C30.5902 42.634 29.3266 43.0448 28.0211 43.2262C28.1118 45.8093 28.2078 46.1208 28.2078 46.4967C28.1758 46.7437 28.1118 46.9639 27.9305 47.0337C27.8874 47.0441 27.8427 47.0458 27.799 47.0387C27.7553 47.0316 27.7134 47.0159 27.6757 46.9924C27.638 46.969 27.6053 46.9382 27.5795 46.902C27.5536 46.8658 27.5352 46.8248 27.5251 46.7813C27.4939 46.7337 27.48 46.6766 27.4859 46.6198C27.4917 46.563 27.5169 46.5101 27.5571 46.4699C27.5571 46.4699 27.4345 44.3217 27.3705 43.296C26.9677 43.3342 26.5616 43.3125 26.1651 43.2315C25.8027 43.1868 25.4651 43.0226 25.2051 42.7643C25.042 42.6235 24.9249 42.4363 24.8691 42.2273C24.8687 42.1338 24.9028 42.0434 24.965 41.9739C25.0271 41.9044 25.1127 41.8607 25.2051 41.8514C25.4825 41.8191 25.4825 42.0984 25.5785 42.1951C25.7011 42.4099 26.0425 42.5066 26.2558 42.5656C26.6059 42.6428 26.9643 42.6753 27.3225 42.6623C27.2605 40.9487 27.2926 39.2329 27.4185 37.5229C27.4185 37.436 27.4528 37.3527 27.5138 37.2913C27.5748 37.2298 27.6575 37.1953 27.7438 37.1953C27.8301 37.1953 27.9128 37.2298 27.9739 37.2913C28.0349 37.3527 28.0691 37.436 28.0691 37.5229C27.9258 39.2108 27.9044 40.9069 28.0051 42.5979C29.2664 42.4865 30.5189 42.2909 31.7545 42.0125Z" fill="#D2147D"/>
<path d="M35.3276 46.3728C34.6255 46.7188 33.8729 46.949 33.0983 47.0549C32.7392 47.1386 32.3624 47.095 32.0316 46.9313C31.793 46.7084 31.6306 46.4152 31.5676 46.0936C31.4016 44.7596 31.3605 43.4129 31.445 42.0712C31.454 40.4893 31.5573 38.9094 31.7543 37.34C31.845 36.9318 32.469 37.0607 32.469 37.4957C32.2284 39.041 32.1142 40.6037 32.1276 42.1679C32.0485 43.4445 32.0788 44.7256 32.2183 45.9969C32.309 46.3728 32.309 46.4051 32.7516 46.4964C33.104 46.5636 33.4659 46.5636 33.8183 46.4964C34.4156 46.4641 34.9703 46.4211 35.3276 46.3728Z" fill="#D2147D"/>
<path d="M43.7871 46.3085C42.9004 46.6637 41.9573 46.8547 41.0031 46.8724C40.3171 46.8919 39.6439 46.6823 39.0885 46.2762C38.8378 45.9861 38.6473 45.6483 38.5285 45.2827C38.3901 45.4541 38.2346 45.6106 38.0645 45.75C37.4138 46.287 36.4645 46.9637 35.6538 47.0281C35.448 47.0355 35.2428 47.0002 35.0511 46.9244C34.8593 46.8487 34.6851 46.7341 34.5391 46.5877C34.1575 46.1025 33.9676 45.4923 34.0058 44.8746C34.0058 44.1281 34.0965 42.9467 34.1605 42.2593C34.1573 42.2131 34.1639 42.1668 34.1798 42.1234C34.1957 42.0799 34.2206 42.0404 34.2528 42.0074C34.285 41.9743 34.3238 41.9485 34.3666 41.9317C34.4094 41.9148 34.4552 41.9073 34.5012 41.9096C34.5471 41.9119 34.592 41.9239 34.6329 41.945C34.6738 41.966 34.7099 41.9955 34.7387 42.0316C34.7675 42.0677 34.7883 42.1095 34.7999 42.1543C34.8115 42.1991 34.8135 42.2458 34.8058 42.2915C34.7471 43.3655 34.6511 44.1281 34.6511 44.8155C34.7151 45.3526 34.7471 45.8413 35.0245 46.0937C35.1028 46.1808 35.1982 46.2506 35.3047 46.2987C35.4112 46.3468 35.5264 46.372 35.6431 46.3729C36.3258 46.3729 37.1578 45.8359 37.7178 45.3418C38.0005 45.0786 38.2677 44.7988 38.5178 44.504C38.5221 44.0987 38.5961 43.6971 38.7365 43.3172C38.754 43.2528 38.7898 43.1949 38.8395 43.1506C38.8891 43.1064 38.9505 43.0777 39.0162 43.068C39.0818 43.0583 39.1488 43.0681 39.209 43.0961C39.2692 43.1242 39.32 43.1693 39.3551 43.2259C39.423 43.4231 39.4415 43.6341 39.409 43.8402C39.3764 44.0463 39.2938 44.2411 39.1685 44.4074C39.1073 44.792 39.1728 45.1862 39.3551 45.5298C39.5453 45.8097 39.7986 46.0403 40.0943 46.2028C40.3901 46.3652 40.7198 46.4548 41.0565 46.4642C41.9695 46.5364 42.888 46.484 43.7871 46.3085Z" fill="#D2147D"/>
<path d="M69.8351 39.1761C67.5418 39.8635 64.9445 40.61 62.9018 41.1363C62.9658 42.1674 62.9658 43.1341 62.9978 44.0363C63.1525 45.9964 63.3391 46.6839 63.4618 46.8718C63.5029 46.9464 63.5144 47.0339 63.4941 47.1168C63.4738 47.1996 63.4232 47.2717 63.3524 47.3185C63.2816 47.3654 63.1958 47.3836 63.1123 47.3695C63.0287 47.3553 62.9535 47.3099 62.9018 47.2424C62.4378 46.5603 62.3151 44.4391 62.2564 41.2652C60.9231 41.6035 59.4404 41.915 57.9898 42.1674C56.8485 42.4113 55.6921 42.5764 54.5284 42.6615C54.5284 43.0642 54.5284 43.6872 54.5284 44.0631C54.5095 44.8246 54.5703 45.5861 54.7098 46.3348C54.7418 46.5872 54.8378 47.0544 55.0831 47.0544C55.1687 47.0234 55.2443 46.9696 55.3018 46.8987C55.3507 46.8745 55.4065 46.8683 55.4595 46.8811C55.5125 46.8939 55.5595 46.9249 55.5923 46.9687C55.6251 47.0125 55.6417 47.0665 55.6393 47.1214C55.6369 47.1762 55.6156 47.2285 55.5791 47.2692C55.5083 47.3549 55.418 47.4221 55.3158 47.4651C55.2137 47.5081 55.1028 47.5256 54.9924 47.5162C54.4591 47.5162 54.2458 46.9792 54.0911 46.4905C53.9233 45.693 53.8517 44.8779 53.8778 44.0631V42.6615C53.4138 42.6615 52.9498 42.6615 52.4858 42.6293C52.028 42.6128 51.5812 42.4837 51.1844 42.2533C51.0447 42.1861 50.9269 42.0801 50.8447 41.948C50.7626 41.8158 50.7195 41.6628 50.7204 41.5068C50.7176 41.4636 50.7233 41.4203 50.7375 41.3794C50.7516 41.3385 50.7737 41.3009 50.8026 41.2688C50.8315 41.2368 50.8665 41.2109 50.9055 41.1927C50.9445 41.1745 50.9868 41.1645 51.0298 41.1632C51.1844 41.1632 51.3711 41.2598 51.3711 41.4424C51.3711 41.7861 52.2404 41.8828 52.5178 41.9096C52.9705 41.9419 53.425 41.9419 53.8778 41.9096C53.9098 40.7604 53.9684 39.5467 53.9684 38.4243C53.9684 37.3019 54.0004 36.2762 54.0004 35.2021C54.0004 35.1152 54.0347 35.0319 54.0957 34.9704C54.1567 34.909 54.2395 34.8745 54.3258 34.8745C54.4121 34.8745 54.4948 34.909 54.5558 34.9704C54.6168 35.0319 54.6511 35.1152 54.6511 35.2021V38.4243C54.6191 39.638 54.5551 40.9752 54.5551 41.8828C55.7658 41.7861 57.0298 41.5981 57.8991 41.4424C59.3498 41.2598 60.8698 40.9752 62.2618 40.6959C62.2298 38.5478 62.2298 36.4587 62.1658 34.9014C62.0751 33.2204 61.9524 32.909 61.8884 32.8499C61.5791 32.5653 62.0431 32.0712 62.3525 32.3827C62.5391 32.5653 62.7258 33.0969 62.8165 34.7778C62.8805 36.303 62.8804 38.4565 62.9071 40.5724C65.6591 40.0461 67.4191 39.6434 69.8351 39.1761Z" fill="#D2147D"/>
<path d="M76.2343 46.3087C75.3002 46.6052 74.3358 46.7944 73.3596 46.8726C72.6182 46.9317 71.7596 46.8726 71.3489 46.2765C71.1502 46.0181 71.0415 45.7011 71.0396 45.3743C70.6701 45.6776 70.2758 45.9489 69.8609 46.1852C69.3881 46.4723 68.8785 46.6927 68.3462 46.8404C68.1417 46.9143 67.9209 46.9298 67.7082 46.8853C67.4955 46.8407 67.2992 46.7378 67.1409 46.588C67.0012 46.4044 66.9132 46.1865 66.886 45.9569C66.8588 45.7273 66.8934 45.4945 66.9862 45.283C67.4292 44.5459 68.0195 43.9095 68.7196 43.4141C69.2529 42.9469 70.2023 42.3401 70.8849 42.383C71.0712 42.4135 71.2388 42.5144 71.3538 42.6651C71.4688 42.8157 71.5223 43.0049 71.5036 43.1939C71.4928 43.2916 71.4627 43.3862 71.4151 43.4719C71.3675 43.5577 71.3033 43.633 71.2262 43.6934C71.1852 43.7432 71.1262 43.7746 71.0622 43.7807C70.9982 43.7867 70.9344 43.7669 70.8849 43.7256C70.8354 43.6843 70.8042 43.6249 70.7982 43.5604C70.7922 43.496 70.8119 43.4318 70.8529 43.3819C70.8529 43.3175 70.8849 43.194 70.8849 43.1349C70.8849 43.0758 70.4796 43.1349 70.3889 43.1349C69.9371 43.3546 69.5114 43.6249 69.1196 43.9404C68.5226 44.3813 68.0094 44.9271 67.6049 45.5515C67.5223 45.762 67.5223 45.9962 67.6049 46.2067C67.6956 46.3302 68.0689 46.298 68.1916 46.298C68.6902 46.158 69.1771 45.9784 69.6476 45.761C70.2058 45.4396 70.7158 45.04 71.1622 44.5741C71.2524 44.3294 71.3782 44.0995 71.5356 43.8921C71.6805 43.6581 71.8604 43.448 72.0689 43.2691C72.1485 43.2075 72.2489 43.1798 72.3486 43.1918C72.4483 43.2039 72.5394 43.2548 72.6023 43.3336C72.6304 43.3582 72.6533 43.3882 72.6699 43.4218C72.6865 43.4554 72.6963 43.492 72.6988 43.5294C72.7012 43.5668 72.6963 43.6044 72.6843 43.6399C72.6724 43.6754 72.6535 43.7082 72.6289 43.7364C72.456 44.1008 72.2024 44.4205 71.8876 44.6708C71.7766 44.8627 71.7107 45.0777 71.695 45.2993C71.6793 45.5208 71.7142 45.743 71.7969 45.9489C72.0742 46.4161 72.8156 46.486 73.3436 46.486C74.31 46.4919 75.2757 46.4327 76.2343 46.3087Z" fill="#D2147D"/>
<path d="M82.4851 46.3086C81.4343 46.4657 80.3992 46.7155 79.3918 47.0551C79.5125 47.6561 79.6674 48.2496 79.8558 48.8326C80.0425 49.4878 80.2238 50.0141 80.4425 50.6102C80.7275 51.4304 80.9451 52.2728 81.0931 53.1289C81.2103 53.839 81.0435 54.5669 80.6291 55.1535C80.4403 55.3707 80.2074 55.5445 79.946 55.6631C79.6847 55.7817 79.4011 55.8423 79.1145 55.8409C78.2816 55.9542 77.436 55.7637 76.7305 55.3039C76.3542 55.0436 76.0361 54.7071 75.7964 54.316C75.5567 53.9248 75.4007 53.4876 75.3385 53.0322C75.2358 52.1369 75.3855 51.2306 75.7705 50.4169C76.0936 49.61 76.5784 48.8788 77.1945 48.2688C77.6394 47.8145 78.1373 47.416 78.6771 47.0819C78.6771 46.7114 78.5545 46.3355 78.5545 45.9649C78.1144 46.2375 77.6604 46.4866 77.1945 46.7114C76.8681 46.8907 76.4991 46.9761 76.1278 46.9584C75.9858 46.9657 75.8443 46.9382 75.7152 46.8783C75.5861 46.8185 75.4733 46.728 75.3864 46.6147C75.0467 46.1125 74.892 45.5065 74.9491 44.9016C74.9491 44.2464 75.1038 43.5966 75.1358 42.9736C75.1572 42.8868 75.2095 42.8108 75.2828 42.7603C75.3561 42.7097 75.4453 42.6879 75.5335 42.6992C75.6216 42.7105 75.7026 42.7539 75.761 42.8214C75.8195 42.8888 75.8513 42.9754 75.8505 43.0649C75.7545 43.602 75.6638 44.2786 75.5998 44.9338C75.5499 45.3757 75.6375 45.8223 75.8505 46.2119C75.8871 46.2623 75.9334 46.3048 75.9864 46.3371C76.0395 46.3693 76.0985 46.3907 76.1598 46.3999C76.4353 46.3846 76.706 46.3209 76.9598 46.2119C77.5271 45.9713 78.0431 45.6231 78.4798 45.1862C78.4819 44.775 78.5338 44.3656 78.6345 43.9671C78.7042 43.512 78.8717 43.0777 79.1251 42.6944C79.2739 42.4792 79.4644 42.2965 79.6851 42.1573C79.7887 42.0979 79.9091 42.0751 80.027 42.0927C80.145 42.1102 80.2537 42.167 80.3358 42.254C80.4374 42.4457 80.4906 42.6597 80.4905 42.877C80.474 43.3423 80.3575 43.7985 80.1491 44.2142C79.8827 44.6784 79.5602 45.1078 79.1891 45.4923C79.1849 45.9411 79.226 46.3891 79.3118 46.8295C80.3351 46.4863 81.4065 46.3104 82.4851 46.3086ZM78.7518 47.431C78.303 47.7623 77.8884 48.1384 77.5145 48.5534C76.9798 49.1385 76.5696 49.8275 76.3091 50.578C75.974 51.3074 75.8449 52.1157 75.9358 52.9141C76.0836 53.6552 76.4904 54.3183 77.0825 54.783C77.6441 55.1139 78.2882 55.2761 78.9385 55.2502C79.3836 55.2297 79.8038 55.0374 80.1118 54.7131C80.2569 54.4905 80.3562 54.2408 80.4038 53.9788C80.4515 53.7169 80.4465 53.4479 80.3891 53.188C80.2661 52.3893 80.0587 51.6062 79.7705 50.8519C79.5838 50.2289 79.3705 49.6704 79.1838 49.0152C78.9956 48.502 78.8581 47.9714 78.7731 47.431H78.7518ZM79.2158 44.3484C79.5552 43.961 79.7445 43.4634 79.7491 42.9468C79.4764 43.3695 79.3014 43.8485 79.2371 44.3484H79.2158Z" fill="#D2147D"/>
<path d="M90.8963 46.3087C89.9623 46.6052 88.9979 46.7944 88.0217 46.8726C87.2803 46.9317 86.4217 46.8726 86.011 46.2765C85.8123 46.0181 85.7036 45.7011 85.7017 45.3743C85.3322 45.6776 84.9379 45.9489 84.523 46.1852C84.0507 46.4732 83.5409 46.6938 83.0083 46.8404C82.8038 46.9143 82.5831 46.9298 82.3703 46.8853C82.1576 46.8407 81.9613 46.7378 81.803 46.588C81.6633 46.4044 81.5753 46.1865 81.5481 45.9569C81.5209 45.7273 81.5555 45.4945 81.6483 45.283C82.0913 44.5459 82.6816 43.9095 83.3817 43.4141C83.915 42.9469 84.8643 42.3401 85.547 42.383C85.7333 42.4135 85.9009 42.5144 86.0159 42.6651C86.1308 42.8157 86.1844 43.0049 86.1657 43.1939C86.1549 43.2916 86.1248 43.3862 86.0772 43.4719C86.0296 43.5577 85.9653 43.633 85.8883 43.6934C85.8473 43.7432 85.7883 43.7746 85.7243 43.7807C85.6603 43.7867 85.5965 43.7669 85.547 43.7256C85.4975 43.6843 85.4663 43.6249 85.4603 43.5604C85.4543 43.496 85.474 43.4318 85.515 43.3819C85.515 43.3175 85.547 43.194 85.547 43.1349C85.547 43.0758 85.147 43.1349 85.051 43.1349C84.5993 43.3546 84.1735 43.6249 83.7817 43.9404C83.186 44.3828 82.6731 44.9284 82.267 45.5515C82.1875 45.7626 82.1875 45.9956 82.267 46.2067C82.363 46.3302 82.731 46.298 82.8537 46.298C83.3523 46.158 83.8392 45.9784 84.3097 45.761C84.8688 45.4411 85.379 45.0413 85.8243 44.5741C85.9187 44.3314 86.0442 44.1021 86.1977 43.8921C86.3443 43.6593 86.524 43.4495 86.731 43.2691C86.8106 43.2075 86.911 43.1798 87.0107 43.1918C87.1104 43.2039 87.2015 43.2548 87.2643 43.3336C87.3207 43.3833 87.3555 43.4532 87.3615 43.5284C87.3675 43.6036 87.3441 43.6782 87.2963 43.7364C87.1197 44.0999 86.8646 44.4192 86.5497 44.6708C86.4387 44.8627 86.3728 45.0777 86.3571 45.2993C86.3414 45.5208 86.3763 45.743 86.459 45.9489C86.7363 46.4161 87.4777 46.486 88.0057 46.486C88.9721 46.4919 89.9378 46.4327 90.8963 46.3087Z" fill="#D2147D"/>
<path d="M95.9414 42.0116C94.7772 42.6332 93.5135 43.044 92.2081 43.2253C92.2988 45.8085 92.3894 46.1199 92.3894 46.4959C92.3894 46.7429 92.2988 46.9631 92.1121 47.0329C92.0694 47.0432 92.025 47.0448 91.9816 47.0377C91.9383 47.0305 91.8967 47.0147 91.8595 46.9912C91.8222 46.9677 91.79 46.937 91.7647 46.9008C91.7394 46.8646 91.7215 46.8237 91.7121 46.7805C91.6788 46.7336 91.6636 46.676 91.6695 46.6187C91.6754 46.5613 91.7019 46.5081 91.7441 46.469C91.7441 46.469 91.6214 44.3209 91.5574 43.2951C91.1547 43.3336 90.7486 43.3118 90.3521 43.2307C89.9897 43.186 89.6521 43.0217 89.3921 42.7635C89.227 42.6234 89.108 42.4361 89.0508 42.2265C89.0504 42.1321 89.0853 42.0411 89.1486 41.9714C89.2118 41.9018 89.2987 41.8586 89.3921 41.8505C89.6694 41.8183 89.6694 42.0976 89.7654 42.1942C89.8881 42.4091 90.2294 42.5057 90.4428 42.5648C90.7929 42.642 91.1513 42.6745 91.5094 42.6615C91.4475 40.9478 91.4796 39.2321 91.6054 37.5221C91.6155 37.4431 91.6539 37.3705 91.7133 37.3179C91.7727 37.2653 91.849 37.2363 91.9281 37.2363C92.0072 37.2363 92.0836 37.2653 92.143 37.3179C92.2023 37.3705 92.2407 37.4431 92.2508 37.5221C92.1082 39.21 92.0886 40.9062 92.1921 42.597C93.4533 42.4852 94.7058 42.2897 95.9414 42.0116Z" fill="#D2147D"/>
<path d="M99.5254 46.3728C98.8255 46.7194 98.0744 46.9498 97.3014 47.0549C96.9423 47.1386 96.5656 47.095 96.2348 46.9313C95.9961 46.7084 95.8337 46.4152 95.7707 46.0936C95.6047 44.7596 95.5637 43.4129 95.6481 42.0712C95.6571 40.4893 95.7604 38.9094 95.9574 37.34C96.0481 36.9318 96.6668 37.0607 96.6668 37.4957C96.4288 39.0414 96.3147 40.6038 96.3254 42.1679C96.2481 43.4446 96.2802 44.7257 96.4214 45.9969C96.5121 46.3728 96.5121 46.4051 96.9547 46.4964C97.3072 46.5629 97.6689 46.5629 98.0214 46.4964C98.6027 46.4641 99.1574 46.4211 99.5254 46.3728Z" fill="#D2147D"/>
<path d="M107.51 46.3087C106.574 46.6052 105.608 46.7944 104.63 46.8726C103.888 46.9317 103.056 46.8726 102.619 46.2765C102.423 46.0168 102.314 45.7006 102.31 45.3743C101.942 45.6776 101.55 45.9489 101.136 46.1852C100.663 46.4713 100.154 46.6917 99.6216 46.8404C99.4171 46.9143 99.1963 46.9298 98.9836 46.8853C98.7709 46.8407 98.5746 46.7378 98.4163 46.588C98.2766 46.4044 98.1886 46.1865 98.1614 45.9569C98.1342 45.7273 98.1688 45.4945 98.2616 45.283C98.701 44.5449 99.2898 43.9081 99.9896 43.4141C100.55 42.9469 101.478 42.3401 102.155 42.383C102.341 42.4135 102.509 42.5144 102.624 42.6651C102.739 42.8157 102.792 43.0049 102.774 43.1939C102.715 43.4732 102.592 43.6612 102.496 43.6934C102.455 43.7425 102.397 43.7733 102.333 43.7788C102.27 43.7843 102.206 43.7642 102.158 43.7229C102.109 43.6816 102.078 43.6225 102.073 43.5585C102.067 43.4946 102.087 43.4311 102.128 43.3819C102.128 43.3175 102.155 43.194 102.155 43.1349C102.155 43.0758 101.755 43.1349 101.664 43.1349C101.212 43.3534 100.786 43.6237 100.395 43.9404C99.7979 44.3813 99.2848 44.9271 98.8803 45.5515C98.7949 45.7615 98.7949 45.9967 98.8803 46.2067C98.971 46.3302 99.3443 46.298 99.467 46.298C99.965 46.1561 100.452 45.9766 100.923 45.761C101.48 45.438 101.99 45.0385 102.438 44.5741C102.528 44.3307 102.652 44.1011 102.806 43.8921C102.961 43.6576 103.149 43.4476 103.366 43.2691C103.404 43.2373 103.449 43.2136 103.497 43.1995C103.546 43.1855 103.596 43.1813 103.646 43.1874C103.696 43.1934 103.744 43.2094 103.787 43.2346C103.831 43.2597 103.869 43.2933 103.899 43.3336C103.955 43.3833 103.99 43.4532 103.996 43.5284C104.002 43.6036 103.979 43.6782 103.931 43.7364C103.757 44.1 103.503 44.4194 103.19 44.6708C103.083 44.8518 103.016 45.054 102.994 45.2635C102.972 45.473 102.995 45.6848 103.062 45.8845C103.344 46.3517 104.086 46.4215 104.608 46.4215C105.577 46.4491 106.546 46.4114 107.51 46.3087Z" fill="#D2147D"/>
<path d="M111.685 42.3823C111.292 42.3448 110.894 42.3665 110.507 42.4468C110.229 42.5207 109.969 42.6495 109.741 42.8256C109.513 43.0017 109.322 43.2216 109.179 43.4725C108.82 43.9585 108.547 44.5036 108.373 45.0836C108.251 45.6206 108.16 46.0181 108.064 46.3618C107.975 46.6027 107.812 46.8093 107.6 46.9525C107.503 47.0008 107.395 47.0232 107.287 47.0175C107.178 47.0119 107.073 46.9784 106.981 46.9203C106.725 46.5291 106.566 46.0815 106.518 45.6153C106.427 44.8956 106.331 44.117 106.304 43.6497C106.296 43.605 106.297 43.559 106.308 43.5147C106.318 43.4704 106.338 43.4288 106.365 43.3926C106.392 43.3563 106.427 43.3262 106.466 43.3041C106.506 43.2821 106.55 43.2685 106.595 43.2644C106.64 43.2603 106.685 43.2657 106.728 43.2802C106.771 43.2947 106.81 43.3181 106.844 43.3487C106.877 43.3794 106.904 43.4168 106.922 43.4585C106.94 43.5001 106.95 43.5451 106.95 43.5906C106.982 44.0256 107.078 44.8634 107.168 45.5186C107.252 45.7613 107.315 46.0112 107.355 46.2651C107.413 46.1094 107.6 45.5186 107.787 44.8956C107.957 44.2489 108.241 43.6379 108.624 43.0912C108.819 42.7778 109.076 42.5083 109.378 42.2995C109.681 42.0906 110.024 41.947 110.384 41.8775C110.848 41.783 111.328 41.8146 111.776 41.9688C111.831 41.9809 111.878 42.0143 111.908 42.0617C111.938 42.109 111.948 42.1664 111.936 42.2212C111.924 42.2761 111.891 42.3239 111.844 42.3541C111.797 42.3843 111.74 42.3944 111.685 42.3823Z" fill="#D2147D"/>
<path d="M115.242 46.4639C114.948 46.6321 114.637 46.7689 114.314 46.872C113.844 47.0679 113.33 47.1311 112.826 47.0546C112.458 46.9633 112.336 46.6518 112.181 46.2759C112.07 45.3855 112.027 44.4878 112.053 43.5907C112.053 43.1235 112.736 43.0537 112.736 43.4941C112.684 44.3686 112.714 45.2461 112.826 46.1148C112.888 46.2863 113.009 46.4294 113.168 46.5176C113.354 46.7055 113.941 46.6089 114.282 46.582C114.598 46.5123 114.919 46.4728 115.242 46.4639Z" fill="#D2147D"/>
<path d="M123.995 46.3729C123.353 46.6022 122.69 46.7695 122.016 46.8724C121.464 46.9053 120.91 46.8417 120.379 46.6844C119.419 46.3729 119.046 45.3741 119.078 44.3483C119.084 43.8709 119.167 43.3976 119.323 42.9467C118.818 43.3477 118.361 43.8074 117.963 44.3161C117.563 44.8532 117.099 45.5298 116.726 46.0937C116.667 46.185 116.294 46.6844 116.294 46.6844C116.258 46.7476 116.202 46.7965 116.135 46.8229C116.067 46.8494 115.993 46.8518 115.925 46.8298C115.856 46.8077 115.797 46.7626 115.757 46.702C115.717 46.6413 115.7 46.5687 115.707 46.4965C115.707 45.9057 115.739 45.2828 115.707 44.7189C115.7 44.1553 115.649 43.5932 115.552 43.038C115.527 42.9511 115.538 42.8579 115.581 42.7788C115.625 42.6998 115.698 42.6413 115.784 42.6164C115.87 42.5915 115.963 42.6021 116.042 42.6459C116.12 42.6897 116.178 42.7631 116.203 42.85C116.294 43.387 116.358 44.2195 116.384 44.7189V45.4707C116.748 44.9388 117.142 44.4279 117.563 43.9402C117.929 43.4437 118.366 43.0041 118.859 42.6352C119.11 42.4088 119.392 42.219 119.696 42.0713C120.096 41.8887 120.379 42.2002 120.16 42.5708C120.051 42.846 119.958 43.1275 119.883 43.4139C119.696 44.1282 119.606 45.0626 119.974 45.6533C120.342 46.2441 121.179 46.4052 121.952 46.4052C122.726 46.4052 123.408 46.3729 123.995 46.3729Z" fill="#D2147D"/>
<path d="M143.392 46.4207C142.051 47.4201 140.598 48.2566 139.062 48.9125C136.864 49.8738 134.422 50.7492 132.128 51.4956C129.035 52.5214 125.91 53.4558 122.694 54.1808C121.094 54.5889 119.494 54.9004 117.894 55.2119C119.099 54.836 120.491 54.4332 122.592 53.8102C125.995 52.7845 129.366 51.689 131.904 50.819C134.134 50.0403 136.603 49.1381 138.742 48.2036C140.228 47.5971 141.632 46.8012 142.918 45.8353C143.227 45.556 143.718 45.0566 143.691 44.6216C143.655 44.4686 143.586 44.3252 143.49 44.2018C143.393 44.0784 143.27 43.9779 143.131 43.9074C142.176 43.2522 140.379 42.9085 139.206 42.785C137.884 42.6823 136.555 42.7237 135.243 42.9085C135.28 43.6915 135.364 44.4716 135.494 45.2446C135.525 45.5404 135.588 45.832 135.68 46.1146C135.692 46.1576 135.696 46.2026 135.691 46.2471C135.686 46.2916 135.672 46.3346 135.651 46.3737C135.629 46.4129 135.6 46.4474 135.566 46.4753C135.531 46.5031 135.491 46.5238 135.448 46.5362C135.405 46.5485 135.361 46.5522 135.317 46.5472C135.272 46.5421 135.23 46.5283 135.191 46.5067C135.152 46.485 135.118 46.4558 135.09 46.4207C135.062 46.3857 135.042 46.3456 135.03 46.3025C134.937 45.998 134.874 45.685 134.843 45.3681C134.72 44.6216 134.624 43.757 134.566 42.9998C133.947 43.1287 133.915 42.5648 134.192 42.4091C134.312 42.3708 134.426 42.3185 134.534 42.2533C134.502 41.7163 134.47 41.2276 134.443 40.7281C134.393 40.1294 134.298 39.5352 134.16 38.9506C134.152 38.9076 134.153 38.8634 134.162 38.8205C134.17 38.7777 134.188 38.737 134.212 38.7008C134.237 38.6647 134.268 38.6337 134.304 38.6098C134.341 38.5858 134.381 38.5693 134.424 38.5612C134.467 38.5531 134.511 38.5535 134.553 38.5625C134.596 38.5715 134.636 38.5888 134.672 38.6135C134.708 38.6382 134.739 38.6697 134.763 38.7064C134.786 38.743 134.803 38.784 134.811 38.827C134.892 39.1236 134.954 39.4249 134.998 39.7292C135.088 40.4489 135.152 41.1631 135.184 41.8774C135.835 41.5015 136.48 41.1255 137.131 40.6906C138.318 39.9521 139.395 39.048 140.331 38.0054C140.763 37.506 141.398 36.695 141.291 36.0076C141.227 35.5726 140.795 35.2934 140.395 35.0732C139.367 34.6994 138.287 34.4892 137.195 34.4502C135.511 34.3432 133.821 34.4062 132.15 34.6382C131.039 34.7818 129.944 35.0226 128.875 35.3578C128.225 35.5353 127.611 35.8262 127.062 36.2171C126.764 36.4426 126.531 36.7425 126.384 37.0871C126.323 37.0262 126.275 36.9533 126.243 36.8729C126.211 36.7926 126.195 36.7064 126.198 36.6198C126.204 36.4443 126.249 36.2724 126.329 36.1165C126.41 35.9605 126.523 35.8243 126.662 35.7176C127.257 35.2503 127.925 34.8872 128.64 34.6436C129.748 34.277 130.887 34.0163 132.043 33.8649C133.773 33.6061 135.524 33.5323 137.27 33.6447C138.46 33.6916 139.633 33.946 140.736 34.3965C141.061 34.5136 141.351 34.7121 141.579 34.9733C141.807 35.2345 141.964 35.5498 142.038 35.8895C142.192 36.8239 141.504 37.7584 140.891 38.4458C139.89 39.5201 138.757 40.462 137.52 41.2491C137.056 41.5605 136.56 41.8398 136.096 42.119C137.161 42.0268 138.232 42.0268 139.296 42.119C140.788 42.1916 142.244 42.595 143.563 43.3005C143.784 43.4258 143.974 43.6003 144.118 43.8106C144.262 44.0209 144.357 44.2615 144.395 44.5142C144.475 45.2822 143.915 45.8836 143.392 46.4207Z" fill="#D2147D"/>
<path d="M154.795 46.3087C153.859 46.6052 152.893 46.7944 151.915 46.8726C151.173 46.9317 150.341 46.8726 149.909 46.2765C149.711 46.0181 149.602 45.7011 149.6 45.3743C149.23 45.6764 148.836 45.9476 148.421 46.1852C147.948 46.4713 147.439 46.6917 146.907 46.8404C146.702 46.9143 146.481 46.9298 146.269 46.8853C146.056 46.8407 145.86 46.7378 145.701 46.588C145.562 46.4044 145.474 46.1865 145.447 45.9569C145.419 45.7273 145.454 45.4945 145.547 45.283C145.988 44.546 146.576 43.9096 147.275 43.4141C147.835 42.9469 148.763 42.3401 149.445 42.383C149.631 42.4147 149.797 42.5161 149.911 42.6667C150.025 42.8172 150.078 43.0057 150.059 43.1939C150 43.4732 149.877 43.6612 149.781 43.6934C149.761 43.7177 149.736 43.7378 149.708 43.7524C149.68 43.7671 149.65 43.7761 149.618 43.7788C149.555 43.7843 149.492 43.7642 149.443 43.7229C149.394 43.6816 149.363 43.6225 149.358 43.5585C149.352 43.4946 149.372 43.4311 149.413 43.3819C149.413 43.3175 149.445 43.194 149.445 43.1349C149.445 43.0758 149.04 43.1349 148.949 43.1349C148.496 43.3524 148.07 43.6227 147.68 43.9404C147.083 44.3813 146.57 44.9271 146.165 45.5515C146.08 45.7615 146.08 45.9967 146.165 46.2067C146.256 46.3302 146.629 46.298 146.752 46.298C147.249 46.157 147.734 45.9775 148.203 45.761C148.763 45.4398 149.274 45.0401 149.723 44.5741C149.813 44.3307 149.937 44.1011 150.091 43.8921C150.246 43.6576 150.434 43.4476 150.651 43.2691C150.69 43.2373 150.734 43.2136 150.783 43.1995C150.831 43.1855 150.881 43.1813 150.931 43.1874C150.981 43.1934 151.029 43.2094 151.072 43.2346C151.116 43.2597 151.154 43.2933 151.184 43.3336C151.24 43.3833 151.275 43.4532 151.281 43.5284C151.287 43.6036 151.264 43.6782 151.216 43.7364C151.042 44.1 150.789 44.4194 150.475 44.6708C150.363 44.8625 150.297 45.0772 150.28 45.2987C150.263 45.5202 150.297 45.7425 150.379 45.9489C150.661 46.4161 151.403 46.486 151.925 46.486C152.885 46.4908 153.843 46.4315 154.795 46.3087Z" fill="#D2147D"/>
<path d="M154.091 44.1605C154.342 44.4075 155.547 44.4075 156.043 44.4075C156.632 44.401 157.221 44.4423 157.803 44.531C157.925 44.5594 158.033 44.6275 158.112 44.7246C158.192 44.8217 158.236 44.9425 158.24 45.068C158.199 45.3248 158.066 45.5576 157.867 45.7232C157.424 46.1289 156.929 46.4721 156.395 46.7436C156.082 46.9608 155.739 47.1293 155.376 47.2431C155.067 47.3075 154.88 47.1195 154.88 46.9316C154.897 46.8149 154.943 46.7044 155.014 46.6105C155.085 46.5166 155.179 46.4423 155.286 46.3945C155.44 46.3301 155.622 46.3945 155.622 46.5825C155.808 46.4858 155.931 46.3945 156.118 46.2979C156.611 45.9778 157.067 45.6031 157.478 45.1808C156.986 45.1177 156.49 45.0961 155.995 45.1164C155.404 45.1502 154.811 45.1087 154.23 44.9929C154.072 44.9697 153.923 44.9088 153.794 44.8154C153.665 44.7219 153.56 44.5986 153.488 44.4559C153.432 44.2953 153.423 44.122 153.462 43.9564C153.501 43.7909 153.586 43.6399 153.707 43.5214C154.024 43.2031 154.371 42.9154 154.742 42.6621C155.456 42.2272 156.342 41.7277 157.035 41.384C157.364 41.2172 157.735 41.1519 158.102 41.1961C158.144 41.2091 158.184 41.2315 158.217 41.2617C158.25 41.2919 158.277 41.329 158.294 41.3706C158.311 41.4121 158.319 41.457 158.317 41.502C158.315 41.5471 158.304 41.5911 158.283 41.6311C158.192 41.819 158.16 41.6633 157.328 42.007C156.58 42.3537 155.866 42.7708 155.195 43.2529C154.928 43.3818 154.155 43.8812 154.091 44.1605Z" fill="#D2147D"/>
<path d="M163.622 46.3728C162.919 46.7188 162.167 46.949 161.392 47.0549C161.033 47.1386 160.656 47.095 160.326 46.9313C160.087 46.7084 159.925 46.4152 159.862 46.0936C159.696 44.7596 159.654 43.4129 159.739 42.0712C159.748 40.4893 159.851 38.9094 160.048 37.34C160.139 36.9318 160.758 37.0607 160.758 37.4957C160.521 39.0415 160.409 40.6039 160.422 42.1679C160.342 43.4445 160.373 44.7256 160.512 45.9969C160.603 46.3728 160.603 46.4051 161.046 46.4964C161.398 46.5636 161.76 46.5636 162.112 46.4964C162.694 46.4641 163.248 46.4211 163.622 46.3728Z" fill="#D2147D"/>
<path d="M171.6 46.3087C170.666 46.6052 169.702 46.7944 168.726 46.8726C167.984 46.9317 167.126 46.8726 166.715 46.2765C166.516 46.0181 166.408 45.7011 166.406 45.3743C166.036 45.6776 165.642 45.9489 165.227 46.1852C164.754 46.4723 164.245 46.6927 163.712 46.8404C163.508 46.9143 163.287 46.9298 163.074 46.8853C162.862 46.8407 162.665 46.7378 162.507 46.588C162.367 46.4044 162.279 46.1865 162.252 45.9569C162.225 45.7273 162.26 45.4945 162.352 45.283C162.795 44.5459 163.386 43.9095 164.086 43.4141C164.619 42.9469 165.568 42.3401 166.251 42.383C166.437 42.4135 166.605 42.5144 166.72 42.6651C166.835 42.8157 166.889 43.0049 166.87 43.1939C166.859 43.2916 166.829 43.3862 166.781 43.4719C166.734 43.5577 166.669 43.633 166.592 43.6934C166.551 43.7432 166.492 43.7746 166.428 43.7807C166.364 43.7867 166.301 43.7669 166.251 43.7256C166.202 43.6843 166.17 43.6249 166.164 43.5604C166.158 43.496 166.178 43.4318 166.219 43.3819C166.219 43.3175 166.251 43.194 166.251 43.1349C166.251 43.0758 165.846 43.1349 165.755 43.1349C165.303 43.3546 164.878 43.6249 164.486 43.9404C163.889 44.3813 163.376 44.9271 162.971 45.5515C162.889 45.762 162.889 45.9962 162.971 46.2067C163.062 46.3302 163.435 46.298 163.558 46.298C164.056 46.158 164.543 45.9784 165.014 45.761C165.572 45.4396 166.082 45.04 166.528 44.5741C166.619 44.3294 166.744 44.0995 166.902 43.8921C167.047 43.6581 167.227 43.448 167.435 43.2691C167.515 43.2075 167.615 43.1798 167.715 43.1918C167.815 43.2039 167.906 43.2548 167.968 43.3336C167.995 43.36 168.016 43.3914 168.03 43.4259C168.044 43.4605 168.051 43.4976 168.051 43.535C168.051 43.5724 168.044 43.6094 168.03 43.644C168.016 43.6785 167.995 43.7099 167.968 43.7364C167.796 44.1008 167.542 44.4205 167.227 44.6708C167.116 44.8627 167.05 45.0777 167.035 45.2993C167.019 45.5208 167.054 45.743 167.136 45.9489C167.414 46.4161 168.155 46.486 168.683 46.486C169.658 46.4932 170.633 46.4339 171.6 46.3087Z" fill="#D2147D"/>
<path d="M179.242 46.3729C178.6 46.6016 177.937 46.7688 177.264 46.8724C176.71 46.9048 176.154 46.8412 175.621 46.6844C174.661 46.3729 174.293 45.3741 174.325 44.3483C174.331 43.8709 174.414 43.3976 174.57 42.9467C174.065 43.3477 173.609 43.8074 173.21 44.3161C172.805 44.8532 172.341 45.5298 171.973 46.0937L171.541 46.6844C171.504 46.7456 171.447 46.7924 171.38 46.8175C171.313 46.8426 171.24 46.8445 171.172 46.8229C171.104 46.8013 171.045 46.7575 171.005 46.6983C170.964 46.6392 170.945 46.5681 170.949 46.4965C170.949 45.9057 170.981 45.2828 170.949 44.7189C170.945 44.1552 170.893 43.5928 170.794 43.038C170.77 42.9511 170.78 42.8579 170.824 42.7788C170.867 42.6998 170.94 42.6413 171.026 42.6164C171.113 42.5915 171.205 42.6021 171.284 42.6459C171.362 42.6897 171.42 42.7631 171.445 42.85C171.541 43.387 171.6 44.2195 171.632 44.7189V45.4707C171.994 44.9389 172.386 44.4279 172.805 43.9402C173.175 43.4452 173.613 43.0058 174.106 42.6352C174.357 42.4077 174.639 42.2178 174.944 42.0713C175.344 41.8887 175.621 42.2002 175.408 42.5708C175.298 42.8464 175.204 43.1278 175.125 43.4139C174.944 44.1282 174.848 45.0626 175.221 45.6533C175.594 46.2441 176.426 46.4052 177.2 46.4052C177.973 46.4052 178.656 46.3729 179.242 46.3729Z" fill="#D2147D"/>
<path d="M183.232 51.7266C183.155 52.5068 182.865 53.2503 182.394 53.8747C182.053 54.3949 181.569 54.8051 181.002 55.0562C180.469 55.3 179.885 55.407 179.301 55.3677C178.716 55.352 178.143 55.198 177.628 54.9181C177.112 54.6383 176.67 54.2404 176.336 53.7566C176.145 53.4019 175.998 53.0249 175.898 52.6342C175.891 52.5779 175.905 52.5209 175.938 52.4747C175.971 52.4285 176.02 52.3964 176.075 52.3849C176.13 52.3734 176.188 52.3833 176.236 52.4125C176.284 52.4418 176.32 52.4884 176.336 52.5429C176.493 53.2126 176.879 53.8049 177.428 54.2156C177.976 54.6263 178.651 54.8289 179.333 54.7877C179.832 54.7904 180.327 54.6936 180.789 54.503C181.203 54.2413 181.564 53.9044 181.856 53.5095C182.262 52.9634 182.518 52.3186 182.597 51.6407C182.679 51.1078 182.711 50.5684 182.693 50.0296C182.661 49.5301 182.661 49.2509 182.565 48.4185C182.463 47.5936 182.412 46.7632 182.41 45.932C181.978 46.3254 181.475 46.6317 180.928 46.8342C180.435 46.9697 179.921 47.0116 179.413 46.9577C179.205 46.9636 178.998 46.925 178.806 46.8445C178.614 46.764 178.441 46.6433 178.298 46.4905C178.202 46.3875 178.13 46.264 178.088 46.1293C178.045 45.9945 178.033 45.8518 178.053 45.7118C178.169 45.1288 178.411 44.5786 178.762 44.1007C179.318 43.2322 180.098 42.5323 181.018 42.0761C181.389 41.9065 181.79 41.8117 182.197 41.7969C182.336 41.8312 182.46 41.9108 182.55 42.0235C182.64 42.1361 182.69 42.2755 182.693 42.4198C182.651 42.6855 182.519 42.9284 182.32 43.1072C182.133 43.263 181.856 43.0106 182.01 42.8226C182.055 42.7033 182.086 42.5788 182.101 42.452C181.816 42.4786 181.541 42.5744 181.301 42.7313C180.51 43.1447 179.83 43.7433 179.317 44.4767C178.981 44.8399 178.757 45.2931 178.672 45.7816C178.637 45.8394 178.621 45.9066 178.626 45.9739C178.631 46.0411 178.656 46.1053 178.698 46.1576C178.911 46.323 179.177 46.4016 179.445 46.3777C179.887 46.3829 180.325 46.3083 180.741 46.1576C181.484 45.8968 182.111 45.3768 182.506 44.6915C182.567 44.4474 182.598 44.1967 182.597 43.945C182.616 43.8665 182.661 43.7965 182.723 43.7453C182.785 43.6941 182.862 43.6645 182.942 43.6609C183.023 43.6573 183.102 43.6799 183.168 43.7252C183.235 43.7706 183.285 43.8364 183.312 43.9128C183.35 44.0762 183.356 44.2457 183.33 44.4116C183.303 44.5775 183.245 44.7365 183.157 44.8794C183.125 45.3144 183.125 45.7816 183.125 46.1898C183.125 46.904 183.157 47.6505 183.216 48.3379C183.31 48.8833 183.372 49.4338 183.402 49.9866C183.427 50.5718 183.369 51.1575 183.232 51.7266Z" fill="#D2147D"/>
<path d="M187.962 46.4639C187.668 46.633 187.357 46.7699 187.034 46.872C186.566 47.068 186.053 47.1311 185.552 47.0546C185.178 46.9633 185.056 46.6518 184.901 46.2759C184.795 45.3851 184.754 44.4876 184.778 43.5907C184.778 43.1235 185.456 43.0537 185.456 43.4941C185.408 44.3688 185.44 45.246 185.552 46.1148C185.611 46.2873 185.733 46.431 185.893 46.5176C186.08 46.7055 186.666 46.6089 187.008 46.582C187.321 46.5123 187.641 46.4728 187.962 46.4639Z" fill="#D2147D"/>
<path d="M195.206 46.3083C194.091 46.4962 193.072 46.6842 191.958 46.8722C191.126 46.97 190.287 46.9897 189.451 46.9312C188.982 46.9051 188.53 46.7429 188.15 46.464C187.889 46.2184 187.725 45.8869 187.686 45.5296C187.666 45.0536 187.773 44.5809 187.995 44.1601C188.394 43.3525 189.031 42.6886 189.819 42.259C189.979 42.1311 190.164 42.0398 190.362 41.9916C190.56 41.9433 190.766 41.9393 190.966 41.9798C191.214 42.0543 191.438 42.1932 191.616 42.3826C191.707 42.5705 191.52 42.8229 191.339 42.7263C191.307 42.7263 191.152 42.6672 191.03 42.635C190.718 42.6099 190.405 42.6751 190.128 42.8229C189.485 43.2079 188.96 43.7658 188.614 44.434C188.456 44.7549 188.373 45.1072 188.368 45.4651C188.372 45.5665 188.396 45.6662 188.438 45.7584C188.48 45.8505 188.54 45.9334 188.614 46.0021C188.896 46.1872 189.211 46.3149 189.542 46.3781C190.323 46.4541 191.109 46.4846 191.894 46.4694C192.976 46.464 194.182 46.3727 195.206 46.3083Z" fill="#D2147D"/>
<path d="M196.998 46.4639C196.703 46.6321 196.392 46.7689 196.07 46.872C195.601 47.0675 195.088 47.1306 194.587 47.0546C194.214 46.9633 194.091 46.6518 193.936 46.2759C193.83 45.3851 193.789 44.4876 193.814 43.5907C193.814 43.1235 194.491 43.0537 194.491 43.4941C194.438 44.3687 194.47 45.2465 194.587 46.1148C194.646 46.2859 194.766 46.4292 194.923 46.5176C195.11 46.7055 195.696 46.6089 196.038 46.582C196.353 46.5123 196.675 46.4728 196.998 46.4639Z" fill="#D2147D"/>
<path d="M156.586 49.1975C156.618 49.0149 156.864 48.9182 157.05 48.9505C157.14 48.9787 157.217 49.0377 157.268 49.1172C157.318 49.1968 157.34 49.2917 157.328 49.3855C157.304 49.4511 157.274 49.514 157.237 49.5734C157.173 49.7936 157.424 49.7936 157.269 49.9762C157.254 50.0104 157.232 50.0407 157.203 50.0649C157.175 50.0891 157.142 50.1064 157.106 50.1158C157.07 50.1251 157.032 50.126 156.996 50.1186C156.959 50.1112 156.925 50.0955 156.896 50.0728C156.77 49.9686 156.665 49.841 156.586 49.6969C156.549 49.5325 156.549 49.3619 156.586 49.1975Z" fill="#D2147D"/>
</g>
<defs>
<clipPath id="clip0_1_948">
<rect width="200" height="55.8621" fill="white"/>
</clipPath>
</defs>
</svg>
